<svg width="24" height="24" viewBox="0 0 24 24" fill="none" xmlns="http://www.w3.org/2000/svg">
<path d="M12.75 3L18 8.4V19.2C18 19.6774 17.8156 20.1352 17.4874 20.4728C17.1592 20.8104 16.7141 21 16.25 21H5.75C5.28587 21 4.84075 20.8104 4.51256 20.4728C4.18437 20.1352 4 19.6774 4 19.2V4.8C4 4.32261 4.18437 3.86477 4.51256 3.52721C4.84075 3.18964 5.28587 3 5.75 3H12.75ZM16.25 19.2V9.3H11.875V4.8H5.75V19.2H16.25ZM10.3 16.014L7.89375 13.314L8.90875 12.27L10.3 13.692L13.4325 10.47L14.4562 11.739L10.3 16.014Z" fill="white"/>
</svg>
