<svg width="118" height="118" viewBox="0 0 118 118" fill="none" xmlns="http://www.w3.org/2000/svg">
<path d="M88.9264 58.5345C88.9264 36.3108 77.2664 20 58.7467 20C40.3298 20 28.699 36.1305 28.57 58.1649C27.8949 58.0121 27.1936 57.9289 26.4726 57.9289C21.2411 57.9289 17 62.17 17 67.4016C17 71.6999 19.8639 75.3273 23.7866 76.4855C23.878 81.6382 28.0806 85.7876 33.2549 85.7876C34.8364 85.7876 36.326 85.3981 37.6364 84.7126C38.9984 88.2737 42.4454 90.8034 46.4849 90.8034C51.7165 90.8034 55.9576 86.5623 55.9576 81.3307C55.9576 80.5662 55.8646 79.8239 55.6935 79.1117C67.7185 79.5716 80.4079 77.306 85.8833 72.3142C93.0824 65.7518 88.9264 64.5186 88.9264 58.5345Z" fill="#682234"/>
<path d="M100.493 67.4016C100.493 62.17 96.2523 57.9289 91.0207 57.9289C90.2995 57.9289 89.5982 58.0121 88.9234 58.1649C88.7944 36.1305 77.1633 20 58.7467 20C58.738 20 58.7295 20.0003 58.721 20.0003V79.1704C59.7489 79.1707 60.7767 79.151 61.7996 79.112C61.6285 79.8242 61.5355 80.5664 61.5355 81.331C61.5355 86.5625 65.7766 90.8036 71.0081 90.8036C75.0479 90.8036 78.495 88.2739 79.8566 84.7129C81.1673 85.3981 82.657 85.7879 84.2382 85.7879C89.4127 85.7879 93.6151 81.6384 93.7065 76.4857C97.6295 75.3273 100.493 71.6999 100.493 67.4016Z" fill="#581A2B"/>
<path d="M66.4741 69.3057H59.1408H58.7982H58.6948H58.3522H51.019C51.019 89.6415 41.0818 87.8019 41.0818 87.8019C41.0818 100.723 55.0375 104.821 58.3519 106.025V106.444C58.3519 106.444 58.4973 106.414 58.7464 106.346C58.9951 106.414 59.1408 106.444 59.1408 106.444V106.025C62.4553 104.821 76.4109 100.722 76.4109 87.8019C76.4112 87.8019 66.4741 89.6415 66.4741 69.3057Z" fill="#F3D8B6"/>
<path d="M66.4741 69.3054H59.1409H58.7983H58.7467V106.346C58.9955 106.414 59.1411 106.444 59.1411 106.444V106.025C62.4556 104.821 76.4113 100.722 76.4113 87.8017C76.4113 87.8017 66.4741 89.6413 66.4741 69.3054Z" fill="#EEC8A2"/>
<path d="M90.656 106.743V117.84H26.837V106.743C26.837 98.4425 30.7587 91.2053 37.0947 87.4001C38.7431 86.4069 40.5562 85.6461 42.5076 85.1644C44.1314 84.7585 45.8502 84.5447 47.6472 84.5447L58.7467 91.0918L69.8461 84.5447C71.6432 84.5447 73.3619 84.7585 74.9857 85.1644C76.9371 85.6461 78.7505 86.4066 80.3986 87.4001C86.7344 91.2053 90.656 98.4425 90.656 106.743Z" fill="#F3D8B6"/>
<path d="M90.6558 106.744V117.84H58.7467V91.0917L68.5665 85.3008L69.8458 84.5452C71.6434 84.5452 73.3619 84.7579 74.9849 85.1644C76.938 85.6472 78.7492 86.4055 80.3995 87.4011C86.7333 91.2063 90.6558 98.443 90.6558 106.744Z" fill="#EEC8A2"/>
<path d="M58.9935 52.9858H41.2665C41.4956 59.0321 42.4531 64.5002 43.5654 66.5536C46.0319 71.1073 51.5362 77.1801 58.7472 77.1801C65.9569 77.1801 71.4604 71.1076 73.9276 66.5536C75.0397 64.5002 75.9974 59.0321 76.2268 52.9858H58.9935Z" fill="#F3DBC4"/>
<path d="M58.9936 52.9854H58.7208V77.1788C58.7295 77.1788 58.7383 77.1793 58.747 77.1793C65.9567 77.1793 71.4602 71.1066 73.9274 66.5529C75.0395 64.4994 75.9972 59.0317 76.2266 52.9851H58.9936V52.9854Z" fill="#EDCEAE"/>
<path d="M71.1535 93.0752H70.3475C68.4083 97.4142 64.0674 100.438 59.0195 100.438C52.1649 100.438 46.6082 94.8654 46.6082 87.991C46.6082 86.7736 46.7855 85.5982 47.1104 84.4861C45.5062 84.524 43.967 84.7313 42.5055 85.0974C40.5524 85.5802 38.7412 86.3385 37.0909 87.3341C30.7571 91.1393 26.8346 98.376 26.8346 106.677V108.305H37.0107L36.9272 108.441V117.898H80.5711V108.441L71.1535 93.0752Z" fill="#AEC7EA"/>
<path d="M90.6585 106.677C90.6585 98.3765 86.736 91.1398 80.4022 87.3346C78.7519 86.339 76.9407 85.5807 74.9876 85.0979C73.6947 84.7741 72.3401 84.5755 70.9342 84.5073C71.2553 85.6134 71.4307 86.7817 71.4307 87.9915C71.4307 94.8659 65.874 100.439 59.0195 100.439C58.9289 100.439 58.8394 100.434 58.7494 100.432V117.898H80.5713V108.442L80.4879 108.305H90.6585V106.677Z" fill="#96B3D4"/>
</svg>
