<svg width="45" height="24" viewBox="0 0 45 24" fill="none" xmlns="http://www.w3.org/2000/svg">
<path d="M12.6636 11.2798H15.6372V12.5615H12.6636V15.9307H11.3013V12.5615H8.32764V11.2798H11.3013V8.16699H12.6636V11.2798ZM27.8394 7.49316H22.6978V17H21.2842V6.33594H27.8394V7.49316ZM35.0464 9.19971C35.0464 8.6333 34.8389 8.18408 34.4238 7.85205C34.0137 7.51514 33.4351 7.34668 32.688 7.34668C32.063 7.34668 31.5381 7.52002 31.1133 7.8667C30.6934 8.2085 30.4834 8.6333 30.4834 9.14111H29.0771C29.0771 8.57471 29.231 8.06689 29.5386 7.61768C29.8511 7.16846 30.2856 6.81934 30.8423 6.57031C31.3989 6.31641 32.0142 6.18945 32.688 6.18945C33.8794 6.18945 34.8047 6.45801 35.4639 6.99512C36.123 7.52734 36.4526 8.26953 36.4526 9.22168C36.4526 9.71484 36.3013 10.1641 35.9985 10.5693C35.6958 10.9746 35.2734 11.2944 34.7314 11.5288C35.9863 11.9487 36.6138 12.7812 36.6138 14.0264C36.6138 14.9834 36.2573 15.7427 35.5444 16.3042C34.8315 16.8657 33.8794 17.1465 32.688 17.1465C31.98 17.1465 31.3354 17.022 30.7544 16.7729C30.1782 16.519 29.729 16.1602 29.4067 15.6963C29.0845 15.2324 28.9233 14.6807 28.9233 14.041H30.3296C30.3296 14.6025 30.5518 15.0713 30.9961 15.4473C31.4404 15.8184 32.0044 16.0039 32.688 16.0039C33.4546 16.0039 34.0649 15.8257 34.519 15.4692C34.978 15.1128 35.2075 14.6416 35.2075 14.0557C35.2075 12.8057 34.4336 12.1685 32.8857 12.144H31.5674V10.9868H32.8784C33.5913 10.9722 34.1309 10.811 34.4971 10.5034C34.8633 10.1958 35.0464 9.76123 35.0464 9.19971Z" fill="white"/>
</svg>
