<svg width="56" height="24" viewBox="0 0 56 24" fill="none" xmlns="http://www.w3.org/2000/svg">
<path d="M13.6777 11.6611H16.4531V12.8574H13.6777V16.002H12.4062V12.8574H9.63086V11.6611H12.4062V8.75586H13.6777V11.6611ZM27.9443 7.04688H29.2568V17H27.9443V9.33008L23.043 17H21.7236V7.04688H23.043V14.7168L27.9443 7.04688ZM34.418 16.1045C34.8691 16.1045 35.2633 15.9678 35.6006 15.6943C35.9378 15.4209 36.1247 15.0791 36.1611 14.6689H37.3574C37.3346 15.0928 37.1888 15.4961 36.9199 15.8789C36.651 16.2617 36.291 16.5671 35.8398 16.7949C35.3932 17.0228 34.9193 17.1367 34.418 17.1367C33.4108 17.1367 32.6087 16.8018 32.0117 16.1318C31.4193 15.4574 31.123 14.5368 31.123 13.3701V13.1582C31.123 12.4382 31.2552 11.7979 31.5195 11.2373C31.7839 10.6768 32.1621 10.2415 32.6543 9.93164C33.151 9.62174 33.7367 9.4668 34.4111 9.4668C35.2406 9.4668 35.9287 9.71517 36.4756 10.2119C37.027 10.7087 37.321 11.3535 37.3574 12.1465H36.1611C36.1247 11.668 35.9424 11.276 35.6143 10.9707C35.2907 10.6608 34.8896 10.5059 34.4111 10.5059C33.7686 10.5059 33.2695 10.7383 32.9141 11.2031C32.5632 11.6634 32.3877 12.3311 32.3877 13.2061V13.4453C32.3877 14.2975 32.5632 14.9538 32.9141 15.4141C33.265 15.8743 33.7663 16.1045 34.418 16.1045ZM44.8291 17H43.5645V10.6494H40.1602V17H38.8887V9.60352H44.8291V17Z" fill="white"/>
</svg>
