<svg width="771" height="160" viewBox="0 0 771 160" fill="none" xmlns="http://www.w3.org/2000/svg">
<path fill-rule="evenodd" clip-rule="evenodd" d="M26.4668 57.2126L93.6043 124.35H26.4668V57.2126Z" fill="#BBD034"/>
<path fill-rule="evenodd" clip-rule="evenodd" d="M226.479 113.084C214.145 113.084 204.486 102.929 204.486 89.9619C204.486 76.5611 213.629 66.8352 226.226 66.8352C238.835 66.8352 248.343 76.7768 248.343 89.9619C248.343 103.361 239.148 113.084 226.479 113.084ZM226.479 56.9349C207.535 56.9349 192.694 71.4422 192.694 89.9619C192.694 108.411 207.422 122.86 226.226 122.86C245.24 122.86 260.135 108.411 260.135 89.9619C260.135 71.1323 245.667 56.9349 226.479 56.9349Z" fill="#271F47"/>
<path fill-rule="evenodd" clip-rule="evenodd" d="M284.136 89.9619C284.136 76.7768 293.105 66.8352 304.995 66.8352C313.213 66.8352 318.329 70.5424 322.211 74.3689L329.334 66.6791C322.755 59.9443 315.251 56.9349 305.121 56.9349C286.744 56.9349 272.347 71.4422 272.347 89.9619C272.347 108.411 286.689 122.86 304.995 122.86C317.723 122.86 324.713 117.56 329.8 112.177L323.003 105.475C317.487 110.731 312.134 113.084 305.75 113.084C293.431 113.084 284.136 103.145 284.136 89.9619Z" fill="#271F47"/>
<path fill-rule="evenodd" clip-rule="evenodd" d="M414.695 58.3168H402.09L428.008 121.857H439.417L465.213 58.3168H452.981L433.77 110.442L414.695 58.3168Z" fill="#271F47"/>
<path fill-rule="evenodd" clip-rule="evenodd" d="M481.036 121.352H492.825V58.3168H481.036V121.352Z" fill="#271F47"/>
<path fill-rule="evenodd" clip-rule="evenodd" d="M629.175 113.084C616.842 113.084 607.183 102.929 607.183 89.9619C607.183 76.5611 616.325 66.8352 628.921 66.8352C641.532 66.8352 651.04 76.7768 651.04 89.9619C651.04 103.361 641.844 113.084 629.175 113.084ZM629.175 56.9349C610.231 56.9349 595.391 71.4422 595.391 89.9619C595.391 108.411 610.118 122.86 628.921 122.86C647.938 122.86 662.834 108.411 662.834 89.9619C662.834 71.1323 648.363 56.9349 629.175 56.9349Z" fill="#271F47"/>
<path fill-rule="evenodd" clip-rule="evenodd" d="M168.004 92.1471C166.962 104.506 158.01 113.084 146.234 113.084C133.901 113.084 124.239 102.929 124.239 89.9619C124.239 76.561 133.382 66.8352 145.98 66.8352C157.696 66.8352 166.955 75.6313 168 87.749L168.004 92.1471ZM146.234 56.9349C127.29 56.9349 112.45 71.4421 112.45 89.9619C112.45 108.41 127.178 122.86 145.98 122.86C153.038 122.86 159.729 120.891 165.33 117.165L168.004 115.384V122.642H180.342V32.1165H168.004V64.2597L165.335 62.5014C159.812 58.8585 153.206 56.9349 146.234 56.9349Z" fill="#271F47"/>
<path fill-rule="evenodd" clip-rule="evenodd" d="M703.186 58.5004C698.26 58.5004 693.425 59.7147 689.204 62.0056L686.661 63.3897V56.5034H674.867L674.855 85.9747L674.858 122.498H686.668V85.635C686.957 75.7049 693.664 68.7886 702.981 68.7886C707.588 68.7886 711.835 70.5883 714.934 73.8547C718.023 77.1097 719.724 81.5766 719.717 86.4315V122.498H731.454V86.2502C731.454 70.6916 719.038 58.5004 703.186 58.5004Z" fill="#271F47"/>
<path fill-rule="evenodd" clip-rule="evenodd" d="M570.751 121.352H582.538V58.3168H570.751V121.352Z" fill="#271F47"/>
<path fill-rule="evenodd" clip-rule="evenodd" d="M389.589 66.6791C383.01 59.9443 375.507 56.9349 365.377 56.9349C352.674 57.1048 343.443 65.1228 343.443 75.9987C343.443 81.2966 345.47 85.3664 349.641 88.4446C353.41 91.0729 358.194 92.7555 362.383 94.0593C362.585 94.1305 362.774 94.1833 362.96 94.2384C363.23 94.3141 363.469 94.383 363.676 94.4518L364.068 94.5804C371.854 97.1284 378.573 99.3274 378.573 105.025C378.573 107.483 377.224 113.21 364.706 113.279C358.254 113.279 352.267 110.658 346.774 105.486L339.977 112.187C347.123 119.672 354.643 122.876 364.968 122.876L367.137 122.831C379.87 122.656 389.107 114.638 389.107 103.765C389.107 98.4804 387.092 94.4197 382.946 91.3484C379.138 88.688 374.357 87.0054 370.17 85.7039C369.991 85.6396 369.825 85.5937 369.66 85.5478L369.428 85.4789L368.457 85.1736C360.685 82.628 353.977 80.4312 353.977 74.7385C353.977 69.9754 358.449 66.8788 365.368 66.8467C373.5 66.8467 378.594 70.547 382.466 74.3689L389.589 66.6791Z" fill="#271F47"/>
<path fill-rule="evenodd" clip-rule="evenodd" d="M556.01 66.6791C549.431 59.9443 541.927 56.9349 531.797 56.9349C519.094 57.1048 509.864 65.1228 509.864 75.9987C509.864 81.2966 511.891 85.3664 516.062 88.4446C519.831 91.0729 524.615 92.7555 528.804 94.0593C529.006 94.1305 529.194 94.1833 529.38 94.2384C529.651 94.3141 529.89 94.383 530.097 94.4518L530.489 94.5804C538.275 97.1284 544.994 99.3274 544.994 105.025C544.994 107.483 543.644 113.21 531.127 113.279C524.675 113.279 518.688 110.658 513.195 105.486L506.398 112.187C513.544 119.672 521.064 122.876 531.389 122.876L533.558 122.831C546.291 122.656 555.528 114.638 555.528 103.765C555.528 98.4804 553.513 94.4197 549.367 91.3484C545.559 88.688 540.777 87.0054 536.59 85.7039C536.411 85.6396 536.246 85.5937 536.081 85.5478L535.849 85.4789L534.878 85.1736C527.106 82.628 520.398 80.4312 520.398 74.7385C520.398 69.9754 524.87 66.8788 531.788 66.8467C539.921 66.8467 545.015 70.547 548.887 74.3689L556.01 66.6791Z" fill="#271F47"/>
<path fill-rule="evenodd" clip-rule="evenodd" d="M486.923 44.4545C490.165 44.4545 492.8 41.8194 492.8 38.5782C492.8 35.3393 490.165 32.7041 486.923 32.7041C483.684 32.7041 481.047 35.3393 481.047 38.5782C481.047 41.8194 483.684 44.4545 486.923 44.4545Z" fill="#271F47"/>
<path fill-rule="evenodd" clip-rule="evenodd" d="M576.876 44.4545C580.118 44.4545 582.753 41.8194 582.753 38.5782C582.753 35.3393 580.118 32.7041 576.876 32.7041C573.638 32.7041 571 35.3393 571 38.5782C571 41.8194 573.638 44.4545 576.876 44.4545Z" fill="#271F47"/>
</svg>
