<svg width="32" height="24" viewBox="0 0 32 24" fill="none" xmlns="http://www.w3.org/2000/svg">
<path d="M28 15.8571L22.2222 21L18.1778 17.4L19.9111 15.8571L22.2222 17.9143L26.2667 14.3143L28 15.8571ZM14.7111 7.62857C15.6305 7.62857 16.5123 7.95367 17.1624 8.53236C17.8125 9.11104 18.1778 9.8959 18.1778 10.7143C18.1778 11.5327 17.8125 12.3175 17.1624 12.8962C16.5123 13.4749 15.6305 13.8 14.7111 13.8C13.7917 13.8 12.9099 13.4749 12.2598 12.8962C11.6097 12.3175 11.2444 11.5327 11.2444 10.7143C11.2444 9.8959 11.6097 9.11104 12.2598 8.53236C12.9099 7.95367 13.7917 7.62857 14.7111 7.62857V7.62857ZM14.7111 3C20.4889 3 25.4231 6.19886 27.4222 10.7143C27.1333 11.3829 26.7751 12.0103 26.3591 12.6171C25.6889 12.2571 24.9493 12 24.1636 11.8663L24.9031 10.7143C22.9964 7.25829 19.056 5.05714 14.7111 5.05714C10.3662 5.05714 6.42578 7.25829 4.51911 10.7143C6.42578 14.1703 10.3662 16.3714 14.7111 16.3714L16.1093 16.2994C15.9476 16.8137 15.8667 17.3589 15.8667 17.9143V18.3874L14.7111 18.4286C8.93333 18.4286 3.99911 15.2297 2 10.7143C3.99911 6.19886 8.93333 3 14.7111 3Z" fill="white"/>
</svg>
