<svg viewBox="0 0 536 254" fill="none" xmlns="http://www.w3.org/2000/svg">
	<path d="M293.708 130.334L308.362 152.556C308.92 153.519 309.756 154 310.87 154H319.002C319.56 154 320.016 153.823 320.37 153.468C320.725 153.063 320.902 152.581 320.902 152.024V103.139L307.982 116.059V131.428L302.011 122.031L293.708 130.334Z" fill="black"/>
	<path d="M276.898 152.1V147.143L289.818 134.223V152.1C289.818 152.607 289.641 153.063 289.286 153.468C288.932 153.823 288.476 154 287.918 154H278.798C278.292 154 277.836 153.823 277.43 153.468C277.076 153.063 276.898 152.607 276.898 152.1Z" fill="black"/>
	<path d="M332.055 153.468C332.461 153.823 332.917 154 333.423 154H343.607C344.165 154 344.621 153.823 344.975 153.468C345.381 153.113 345.583 152.657 345.583 152.1V102.7C345.583 102.143 345.381 101.687 344.975 101.332C344.621 100.977 344.165 100.8 343.607 100.8H333.423C332.917 100.8 332.461 100.977 332.055 101.332C331.701 101.687 331.523 102.143 331.523 102.7V152.1C331.523 152.607 331.701 153.063 332.055 153.468Z" fill="black"/>
	<path fill-rule="evenodd" clip-rule="evenodd" d="M392.124 154C390.709 160.535 388.791 166.882 386.413 173H422L405 188H379.418C357.837 227.335 316.033 254 268 254C219.967 254 178.163 227.335 156.582 188H131L114 173H149.587C147.209 166.882 145.291 160.535 143.876 154H94L78 139H141.56C141.189 135.05 141 131.047 141 127C141 126.553 141.002 126.106 141.007 125.66C141.013 125.05 141.024 124.442 141.039 123.834C141.07 122.552 141.12 121.273 141.19 120H55.5L40.5 105H142.899C144.224 97.4141 146.221 90.0593 148.829 83H16L0 68H155.508C176.755 27.5718 219.158 0 268 0C316.842 0 359.245 27.5718 380.492 68H536L520 83H387.171C389.779 90.0593 391.776 97.4141 393.101 105H495.5L480.5 120H394.81C394.936 122.317 395 124.651 395 127C395 131.047 394.811 135.05 394.44 139H458L442 154H392.124ZM379 127C379 188.304 329.304 238 268 238C239.389 238 213.306 227.175 193.623 209.397L350.397 52.6233C368.175 72.3058 379 98.3887 379 127ZM338.071 40.908L278.025 100.954C277.816 101.042 277.618 101.168 277.43 101.332C277.25 101.513 277.115 101.72 277.026 101.953L266.318 112.661V102.7C266.318 102.143 266.115 101.687 265.71 101.332C265.355 100.977 264.899 100.8 264.342 100.8H254.158C253.651 100.8 253.195 100.977 252.79 101.332C252.435 101.687 252.258 102.143 252.258 102.7V126.721L241.608 137.371V102.7C241.608 102.143 241.405 101.687 241 101.332C240.645 100.977 240.189 100.8 239.632 100.8H231.5C230.284 100.8 229.397 101.357 228.84 102.472L215.464 126.412L202.088 102.472C201.531 101.357 200.644 100.8 199.428 100.8H191.22C190.713 100.8 190.257 100.977 189.852 101.332C189.497 101.687 189.32 102.143 189.32 102.7V152.1C189.32 152.607 189.497 153.063 189.852 153.468C190.257 153.823 190.713 154 191.22 154H200.34C200.897 154 201.353 153.823 201.708 153.468C202.063 153.063 202.24 152.607 202.24 152.1V123.6L210.828 139.484C211.132 140.041 211.487 140.472 211.892 140.776C212.297 141.08 212.829 141.232 213.488 141.232H217.44C218.555 141.232 219.441 140.649 220.1 139.484L228.612 123.6V150.367L181.908 197.071C166.337 177.962 157 153.572 157 127C157 65.6963 206.696 16 268 16C294.572 16 318.962 25.3365 338.071 40.908Z" fill="black"/>
</svg>
