<svg viewBox="0 0 536 254" fill="none" xmlns="http://www.w3.org/2000/svg">
	<path d="M189.852 153.468C190.257 153.823 190.713 154 191.22 154H200.34C200.71 154 201.036 153.922 201.316 153.765C201.458 153.686 201.589 153.587 201.708 153.468C202.063 153.063 202.24 152.607 202.24 152.1V123.6L210.828 139.484C211.132 140.042 211.487 140.472 211.892 140.776C212.297 141.08 212.829 141.232 213.488 141.232H217.44C218.555 141.232 219.441 140.649 220.1 139.484L228.612 123.6V152.1C228.612 152.657 228.789 153.113 229.144 153.468C229.549 153.823 230.031 154 230.588 154H239.632C240.009 154 240.339 153.919 240.623 153.757C240.759 153.68 240.885 153.583 241 153.468C241.406 153.113 241.608 152.657 241.608 152.1V102.7C241.608 102.143 241.406 101.687 241 101.332C240.646 100.977 240.189 100.8 239.632 100.8H231.5C230.284 100.8 229.397 101.357 228.84 102.472L215.464 126.412L202.088 102.472C201.531 101.357 200.644 100.8 199.428 100.8H191.22C190.713 100.8 190.257 100.977 189.852 101.332C189.497 101.687 189.32 102.143 189.32 102.7V152.1C189.32 152.177 189.324 152.252 189.332 152.326C189.341 152.402 189.353 152.477 189.37 152.55C189.395 152.661 189.43 152.769 189.474 152.875C189.562 153.083 189.688 153.281 189.852 153.468Z" fill="black"/>
	<path d="M252.79 153.468C253.195 153.823 253.651 154 254.157 154H264.342C264.899 154 265.355 153.823 265.709 153.468C266.115 153.113 266.318 152.657 266.318 152.1V102.7C266.318 102.143 266.115 101.687 265.709 101.332C265.355 100.977 264.899 100.8 264.342 100.8H254.157C253.651 100.8 253.195 100.977 252.79 101.332C252.435 101.687 252.258 102.143 252.258 102.7V152.1C252.258 152.607 252.435 153.063 252.79 153.468Z" fill="black"/>
	<path d="M278.798 154C278.292 154 277.835 153.823 277.43 153.468C277.402 153.436 277.375 153.404 277.349 153.371L277.325 153.34L277.303 153.31C277.246 153.233 277.195 153.154 277.149 153.073C277.089 152.964 277.04 152.853 277.001 152.739C276.973 152.656 276.951 152.571 276.934 152.484C276.91 152.359 276.898 152.231 276.898 152.1V102.7C276.898 102.143 277.075 101.687 277.43 101.332C277.835 100.977 278.292 100.8 278.798 100.8H286.854C288.121 100.8 288.982 101.281 289.438 102.244L307.982 131.428V102.7C307.982 102.143 308.159 101.687 308.514 101.332C308.919 100.977 309.375 100.8 309.882 100.8H319.002C319.56 100.8 320.016 100.977 320.37 101.332C320.725 101.687 320.902 102.143 320.902 102.7V152.024C320.902 152.581 320.725 153.063 320.37 153.468C320.016 153.823 319.56 154 319.002 154H310.87C309.756 154 308.919 153.519 308.362 152.556L289.818 124.436V152.1C289.818 152.607 289.641 153.063 289.286 153.468C289.211 153.543 289.131 153.61 289.047 153.669L289.017 153.69L288.966 153.723C288.939 153.74 288.911 153.756 288.883 153.772C288.717 153.863 288.535 153.927 288.337 153.963C288.205 153.988 288.065 154 287.918 154H278.798Z" fill="black"/>
	<path d="M332.055 153.468C332.46 153.823 332.917 154 333.423 154H343.607C344.165 154 344.621 153.823 344.975 153.468C345.381 153.113 345.583 152.657 345.583 152.1V102.7C345.583 102.143 345.381 101.687 344.975 101.332C344.621 100.977 344.165 100.8 343.607 100.8H333.423C333.279 100.8 333.138 100.814 333.002 100.843C332.661 100.916 332.345 101.078 332.055 101.332C331.7 101.687 331.523 102.143 331.523 102.7V152.1C331.523 152.607 331.7 153.063 332.055 153.468Z" fill="black"/>
	<path fill-rule="evenodd" clip-rule="evenodd" d="M395 127C395 131.047 394.811 135.05 394.44 139H458L442 154H392.124C390.709 160.535 388.791 166.882 386.413 173H422L405 188H379.418C357.837 227.335 316.033 254 268 254C219.967 254 178.163 227.335 156.582 188H131L114 173H149.587C147.209 166.882 145.291 160.535 143.876 154H94L78 139H141.56C141.189 135.05 141 131.047 141 127C141 124.651 141.064 122.317 141.19 120H55.5L40.5 105H142.899C144.224 97.4141 146.221 90.0593 148.829 83H16L0 68H155.508C176.755 27.5718 219.158 0 268 0C316.842 0 359.245 27.5718 380.492 68H536L520 83H387.171C389.779 90.0593 391.776 97.4141 393.101 105H495.5L480.5 120H394.81C394.936 122.317 395 124.651 395 127ZM379 127C379 188.304 329.304 238 268 238C206.696 238 157 188.304 157 127C157 65.6963 206.696 16 268 16C329.304 16 379 65.6963 379 127Z" fill="black"/>
</svg>
