<svg width="36" height="24" viewBox="0 0 36 24" fill="none" xmlns="http://www.w3.org/2000/svg">
<path d="M18.3262 13.9824H13.8218V12.9424H18.3262V13.9824ZM13.5581 8.74561C13.5581 7.98877 13.7852 7.37842 14.2393 6.91455C14.6934 6.45068 15.3013 6.21875 16.063 6.21875C16.8247 6.21875 17.4326 6.44824 17.8867 6.90723C18.3457 7.36133 18.5752 7.98633 18.5752 8.78223V9.46338C18.5752 10.23 18.3481 10.8403 17.894 11.2944C17.4448 11.7485 16.8394 11.9756 16.0776 11.9756C15.3062 11.9756 14.6934 11.7485 14.2393 11.2944C13.7852 10.8354 13.5581 10.2129 13.5581 9.42676V8.74561ZM14.752 9.46338C14.752 9.94189 14.8667 10.313 15.0962 10.5767C15.3306 10.8354 15.6577 10.9648 16.0776 10.9648C16.4878 10.9648 16.8052 10.8354 17.0298 10.5767C17.2593 10.3179 17.3765 9.9541 17.3813 9.48535V8.74561C17.3813 8.27197 17.2642 7.90576 17.0298 7.64697C16.8003 7.3833 16.478 7.25146 16.063 7.25146C15.6528 7.25146 15.3306 7.3833 15.0962 7.64697C14.8667 7.90576 14.752 8.27686 14.752 8.76025V9.46338ZM12.3789 17H10.8848L6.5415 8.69434V17H5.18652V6.33594H6.67334L11.0386 14.6636V6.33594H12.3789V17Z" fill="black"/>
<path d="M27.6464 16.3536C27.8417 16.5488 28.1583 16.5488 28.3536 16.3536L31.5355 13.1716C31.7308 12.9763 31.7308 12.6597 31.5355 12.4645C31.3403 12.2692 31.0237 12.2692 30.8284 12.4645L28 15.2929L25.1716 12.4645C24.9763 12.2692 24.6597 12.2692 24.4645 12.4645C24.2692 12.6597 24.2692 12.9763 24.4645 13.1716L27.6464 16.3536ZM27.5 8L27.5 16L28.5 16L28.5 8L27.5 8Z" fill="black"/>
</svg>
