<svg width="55" height="24" viewBox="0 0 55 24" fill="none" xmlns="http://www.w3.org/2000/svg">
<path d="M12.998 11.2798H15.9717V12.5615H12.998V15.9307H11.6357V12.5615H8.66211V11.2798H11.6357V8.16699H12.998V11.2798ZM29.7632 12.0122C29.7632 13.0571 29.5874 13.9702 29.2358 14.7515C28.8843 15.5278 28.3862 16.1211 27.7417 16.5312C27.0972 16.9414 26.3452 17.1465 25.4858 17.1465C24.646 17.1465 23.9014 16.9414 23.252 16.5312C22.6025 16.1162 22.0972 15.5278 21.7358 14.7661C21.3794 13.9995 21.1963 13.1133 21.1865 12.1074V11.3384C21.1865 10.313 21.3647 9.40723 21.7212 8.62109C22.0776 7.83496 22.5806 7.23438 23.23 6.81934C23.8843 6.39941 24.6313 6.18945 25.4712 6.18945C26.3257 6.18945 27.0776 6.39697 27.7271 6.81201C28.3813 7.22217 28.8843 7.82031 29.2358 8.60645C29.5874 9.3877 29.7632 10.2983 29.7632 11.3384V12.0122ZM28.3643 11.3237C28.3643 10.0591 28.1104 9.08984 27.6025 8.41602C27.0947 7.7373 26.3843 7.39795 25.4712 7.39795C24.5825 7.39795 23.8818 7.7373 23.3691 8.41602C22.8613 9.08984 22.6001 10.0273 22.5854 11.2285V12.0122C22.5854 13.2378 22.8418 14.2021 23.3545 14.9053C23.8721 15.6035 24.5825 15.9526 25.4858 15.9526C26.394 15.9526 27.0972 15.623 27.5952 14.9639C28.0933 14.2998 28.3496 13.3501 28.3643 12.1147V11.3237ZM36.0181 11.2432C36.0181 10.8721 35.8765 10.5791 35.5933 10.3643C35.3101 10.1445 34.9219 10.0347 34.4287 10.0347C33.9502 10.0347 33.5498 10.1592 33.2275 10.4082C32.9102 10.6572 32.7515 10.9502 32.7515 11.2871H31.4038C31.4038 10.5986 31.6919 10.0347 32.2681 9.59521C32.8442 9.15576 33.5645 8.93604 34.4287 8.93604C35.3564 8.93604 36.0791 9.13623 36.5967 9.53662C37.1143 9.93213 37.373 10.4985 37.373 11.2358C37.373 11.5923 37.2656 11.9194 37.0508 12.2173C36.8359 12.5151 36.5308 12.752 36.1353 12.9277C37.0581 13.2402 37.5195 13.8555 37.5195 14.7734C37.5195 15.501 37.2388 16.0771 36.6772 16.502C36.1157 16.9268 35.3662 17.1392 34.4287 17.1392C33.5156 17.1392 32.7612 16.917 32.1655 16.4727C31.5747 16.0234 31.2793 15.418 31.2793 14.6562H32.627C32.627 15.042 32.7979 15.374 33.1396 15.6523C33.4863 15.9258 33.916 16.0625 34.4287 16.0625C34.9463 16.0625 35.3638 15.9429 35.6812 15.7036C35.9985 15.4644 36.1572 15.1543 36.1572 14.7734C36.1572 14.3291 36.0229 14.0117 35.7544 13.8213C35.4907 13.626 35.0781 13.5283 34.5166 13.5283H33.1616V12.3857H34.6338C35.5566 12.3613 36.0181 11.9805 36.0181 11.2432ZM45.752 17H44.397V13.6162H40.7568V17H39.3945V9.0752H40.7568V12.5103H44.397V9.0752H45.752V17Z" fill="white"/>
</svg>
