<svg width="24" height="24" viewBox="0 0 24 24" fill="none" xmlns="http://www.w3.org/2000/svg">
<path d="M9.74728 20.852C11.5269 20.1518 11.137 18.2213 10.2372 17.001C9.34736 15.7507 8.11761 14.8905 6.87787 14.0603C5.99805 13.5001 5.18821 12.8 4.53834 11.9998C4.2584 11.6697 3.68851 11.0595 4.2684 10.9395C4.85828 10.8195 5.87807 11.3996 6.39796 11.6197C7.30778 11.9998 8.2076 12.4399 9.04743 12.96L10.0572 11.2596C8.49754 10.2293 6.49794 9.31909 4.63832 9.04902C3.57854 8.88898 2.45876 9.10904 2.09884 10.2593C1.7789 11.2496 2.2888 12.2498 2.86868 13.03C4.2384 14.8605 6.36797 15.7407 7.95765 17.3211C8.29758 17.6512 8.70749 18.0413 8.90745 18.5014C9.11741 18.9415 9.06742 18.9715 8.59752 18.9715C7.35777 18.9715 5.80808 18.0013 4.79829 17.3611L3.78849 19.0615C5.31818 20.0018 7.87766 21.4721 9.74728 20.852ZM20.835 5.24807C21.055 5.02801 21.055 4.66792 20.835 4.45787L19.5353 3.15754C19.3253 2.94749 18.9654 2.94749 18.7555 3.15754L17.7357 4.1778L19.8152 6.25832L20.835 5.24807ZM10.997 10.9195V13H13.0766L19.2254 6.84847L17.1458 4.76794L10.997 10.9195Z" fill="white"/>
</svg>
