<svg viewBox="0 0 314 110" fill="none" xmlns="http://www.w3.org/2000/svg" xmlns:xlink="http://www.w3.org/1999/xlink">
	<!-- <path fill-rule="evenodd" clip-rule="evenodd" d="M15.4691 15.1768C17.8989 14.9186 20.0836 12.8317 21.302 9.60721L21.533 9H30.93H40.3269L40.558 9.60721C41.0972 11.045 41.8464 12.2803 42.7497 13.2296C43.87 14.4161 45.1024 15.0582 46.4748 15.1838L47 15.2327L46.965 15.5537C46.9533 15.651 46.9285 15.8916 46.8979 16.1883C46.8737 16.4236 46.8458 16.6942 46.8179 16.9566C46.7619 17.5498 46.6359 18.6666 46.5379 19.4343C45.8656 24.7806 45.0254 28.4937 44.1081 30.1059C42.7147 32.5627 38.3593 36.7713 32.5545 41.2661L31.5952 42.0129H31H30.4048L29.2635 41.1265C23.5987 36.7294 19.3694 32.6325 17.9059 30.1478C16.8696 28.375 15.7842 23.1474 15.1821 16.9566C15.1542 16.6942 15.1263 16.4235 15.1021 16.1882C15.0715 15.8916 15.0467 15.651 15.035 15.5537L15 15.2257L15.4691 15.1768ZM42.6096 15.7282C41.3842 14.9674 40.2149 13.3971 39.5777 11.6522L39.3816 11.1287L31.147 11.1078C24.593 11.0938 22.9055 11.1078 22.8775 11.1776C21.8201 14.2416 20.0486 16.0702 17.8219 16.4052C17.4648 16.4611 17.2407 16.5239 17.2407 16.5727C17.2407 16.6216 17.3037 17.2986 17.3807 18.0803C17.8359 22.6658 18.5361 26.5464 19.2713 28.5565C19.7125 29.7639 20.6298 30.9923 22.5274 32.9326C24.495 34.9357 26.9317 37.0644 29.8236 39.3118L30.6009 39.919H31.14H31.6792L32.4565 39.3118C35.2993 37.1063 37.7501 34.9636 39.6897 32.9954C41.5383 31.1249 42.5116 29.8477 42.9457 28.724C43.702 26.7627 44.4162 22.8891 44.8993 18.0454C44.9764 17.2846 45.0394 16.6216 45.0394 16.5727C45.0394 16.5099 44.8853 16.4611 44.6052 16.4331C43.9681 16.3633 43.1908 16.0842 42.6096 15.7282ZM24.348 14.6673C23.5777 16.6565 22.3453 17.9337 20.8469 18.3176C20.6228 18.3734 20.3427 18.4223 20.2377 18.4223C20.1326 18.4223 20.0416 18.4362 20.0416 18.4572C20.0416 18.7294 20.3707 21.591 20.5318 22.7007C21.0639 26.3649 21.6101 28.2145 22.5134 29.401C23.8998 31.2156 26.4696 33.6096 29.9637 36.3455L29.9731 36.3528C30.608 36.8412 30.617 36.8481 31.035 36.8481H31.4622L32.6315 35.9198C36.7208 32.6604 39.4027 29.9663 40.2079 28.2982C40.6981 27.2932 41.1532 25.3668 41.5383 22.7146C41.6924 21.6189 42.0285 18.7294 42.0285 18.4711C42.0285 18.4502 41.8534 18.4223 41.6434 18.3944C40.0119 18.2059 38.5064 16.7402 37.6801 14.5487L37.5401 14.1648H31.042H24.544L24.348 14.6673ZM36.4996 19.3323L38.1846 21.1584L30.7208 28.4045L25.5843 22.9553L27.2693 21.1582L30.7208 24.7813L36.4996 19.3323Z" fill="#0029F8"/> -->
	<image xlink:href="shield.png" x="0" y="0" height="100" width="100" />
	<rect x="0.5" y="0.5" width="313" height="99" rx="7.5" stroke="#0029F8"/>
	<line x1="9" y1="49.5" x2="302" y2="49.5" stroke="#0029F8" stroke-dasharray="1 2"/>
	<text fill="#0029F8" xml:space="preserve" style="white-space: pre" font-family="Roboto" font-size="13" letter-spacing="0.12em">
		<tspan x="71" y="20.9434">ДОКУМЕНТ ПОДПИСАН</tspan>
		<tspan x="71" y="40.9434">ЭЛЕКТРОННОЙ ПОДПИСЬЮ</tspan>
	</text>
	<text fill="#0029F8" xml:space="preserve" style="white-space: pre" font-family="Roboto" font-size="10" letter-spacing="0em">
		<tspan x="9" y="63.418">Сертификат:</tspan>
	</text>
	<text fill="#0029F8" xml:space="preserve" style="white-space: pre" font-family="Roboto" font-size="10" letter-spacing="0em">
		<tspan x="9" y="77.418">Действителен:</tspan>
	</text>
	<text fill="#0029F8" xml:space="preserve" style="white-space: pre" font-family="Roboto" font-size="10" font-weight="bold" letter-spacing="0em">
		<tspan x="9" y="91.418">Владелец:</tspan>
	</text>
	<text fill="#0029F8" xml:space="preserve" style="white-space: pre" font-family="Roboto" font-size="10" letter-spacing="0em">
		<tspan x="85" y="63.418">3D0006008377D4979C9548284A000600060083</tspan>
	</text>
	<text fill="#0029F8" xml:space="preserve" style="white-space: pre" font-family="Roboto" font-size="10" letter-spacing="0em">
		<tspan x="85" y="77.418">с 01.09.2019 0:10:17 до 31.12.2020 0:10:17</tspan>
	</text>
	<text fill="#0029F8" xml:space="preserve" style="white-space: pre-line" font-family="Roboto" font-size="10" font-weight="bold" letter-spacing="0em">
		<tspan x="85" y="92.418">CN=Digital Design CA, DC=digdes, DC=com</tspan>
	</text>
	<!-- следующий блок временно скрыт. Надо его показать и заменить в нем текст -->
	<text fill="#0029F8" xml:space="preserve" style="white-space: pre-line; display: none" font-family="Roboto" font-size="10" font-weight="bold" letter-spacing="0em">
		<tspan x="85" y="106.418">Сюда вводим текст, который не влезает выше</tspan>
	</text>
</svg>
