<svg width="118" height="118" viewBox="0 0 118 118" fill="none" xmlns="http://www.w3.org/2000/svg">
<g clip-path="url(#clip0)">
<path d="M90.9228 92.9764C86.672 84.9303 59.3455 79.8813 59.3455 79.8813C59.3455 79.8813 32.0199 84.9303 27.7691 92.9764C24.6281 104.142 22 118.329 22 118.329H59.3455H96.6919C96.6928 118.329 94.9184 103.117 90.9228 92.9764Z" fill="#F1C9A5"/>
<path d="M59.3455 79.8813C59.3455 79.8813 86.672 84.9303 90.9228 92.9764C94.9176 103.117 96.6919 118.329 96.6919 118.329H59.3455V79.8813Z" fill="#E4B692"/>
<path d="M66.7853 63.5237H51.9074V88.4233H66.7853V63.5237Z" fill="#F1C9A5"/>
<path d="M66.7853 63.5237H59.3455V88.4233H66.7853V63.5237Z" fill="#E4B692"/>
<path opacity="0.1" d="M51.9074 75.0619C53.2459 78.9026 58.645 81.105 62.6107 81.105C64.0459 81.105 65.4417 80.8644 66.7853 80.4243V63.5237H51.9074V75.0619Z" fill="#DDAC8C"/>
<path d="M78.4743 47.8126C78.4743 32.2599 69.9101 23.4165 59.3455 23.4165C48.7818 23.4165 40.2176 32.2599 40.2176 47.8126C40.2176 68.7311 48.7818 75.9739 59.3455 75.9739C69.9109 75.9739 78.4743 67.8593 78.4743 47.8126Z" fill="#F1C9A5"/>
<path d="M78.4743 47.8126C78.4743 32.2599 69.9101 23.4165 59.3455 23.4165C48.7818 23.4165 40.2176 32.2599 40.2176 47.8126C40.2176 68.7311 48.7818 75.9739 59.3455 75.9739C69.9109 75.9739 78.4743 67.8593 78.4743 47.8126Z" fill="#F1C9A5"/>
<path d="M35.9351 51.5615C35.3494 47.3167 37.6872 43.5822 41.1519 43.2208C44.6226 42.8595 47.9067 46.0116 48.4881 50.2565C49.073 54.4979 46.7301 58.2332 43.2645 58.5963C39.7972 58.9551 36.5166 55.8064 35.9351 51.5615Z" fill="#F1C9A5"/>
<path d="M78.4743 47.8126C78.4743 32.2599 69.9101 23.4165 59.3455 23.4165V75.9739C69.911 75.9739 78.4743 67.8593 78.4743 47.8126Z" fill="#E4B692"/>
<path d="M90.9228 92.9764C88.1988 87.8204 76.0072 83.8984 67.5946 81.7439C67.2675 86.017 63.7025 89.385 59.3455 89.385C54.9885 89.385 51.4244 86.017 51.0973 81.7439C42.6847 83.8984 30.4931 87.8204 27.7691 92.9764C24.6281 104.142 22 118.329 22 118.329H59.3455H96.6919C96.6928 118.329 94.9184 103.117 90.9228 92.9764Z" fill="#102F41"/>
<path d="M43.4537 66.3239C47.6146 73.3904 51.7584 74.4831 51.7584 74.4831L53.0138 78.5549H51.2112H49.7983L49.0147 76.7986H47.2892L46.6615 74.6432L44.9523 75.3616L44.5455 72.9665H42.9759L42.427 70.9704L41.2504 71.5296L40.0738 69.6927L38.427 68.815L39.2114 66.1004H37.2513L37.3301 63.2257L35.8392 63.7052L35.2903 61.1508L32.7804 60.1926L34.976 57.9567L33.8782 57.5576L35.054 55.4827L34.1916 55.0837L34.0341 52.608L31.525 52.1293L32.9371 49.8935L31.2107 47.1789L33.2505 46.0605L32.1527 43.3468L32.7795 40.7915L30.4272 38.875L33.7206 38.5565V36.1613L34.6626 34.0856L33.7206 32.3292L35.447 30.8923L33.7206 29.4545L35.6029 27.538V26.4205L37.3292 24.9836L36.5448 22.7477L39.6807 23.3865L39.8383 19.5544L42.1915 20.3525L42.975 18.7563L45.6416 19.0758C45.6416 19.0758 45.0148 17.7981 46.1118 17.7981C47.2096 17.7981 49.8771 18.9165 49.8771 18.9165L51.2883 17L54.4251 19.2359L55.5237 17L57.5627 19.3952L59.4757 17C59.4757 17 59.4757 30.4136 59.4757 38.7166C56.9966 38.5042 55.6796 38.5042 50.2427 36.3745C48.3614 37.6522 42.296 46.3816 42.296 47.2328C42.296 48.084 41.2495 56.8143 41.2495 56.8143L40.1585 51.6078C40.1585 51.6044 41.2461 62.574 43.4537 66.3239Z" fill="#231F20"/>
<path d="M74.8708 66.3239C70.8726 73.3904 66.8915 74.4831 66.8915 74.4831L65.6858 78.5549H67.4173H68.7746L69.5281 76.7986H71.1869L71.7889 74.6432L73.4322 75.3616L73.8235 72.9665H75.3315L75.8581 70.9704L76.9885 71.5296L78.1189 69.6927L79.7014 68.815L78.9478 66.1004H80.8309L80.7555 63.2257L82.1882 63.7052L82.7148 61.1508L85.1262 60.1926L83.0154 57.9567L84.0712 57.5576L82.9409 55.4827L83.7698 55.0837L83.9214 52.608L86.3311 52.1293L84.9747 49.8935L86.6334 47.1789L84.6741 46.0605L85.7282 43.3468L85.1262 40.7915L87.387 38.875L84.2228 38.5565V36.1613L83.3177 34.0856L84.2228 32.3292L82.5641 30.8923L84.2228 29.4545L82.4142 27.538V26.4205L80.7564 24.9836L81.5108 22.7477L78.4965 23.3865L78.3449 19.5544L76.0842 20.3525L75.3306 18.7563L72.7685 19.0758C72.7685 19.0758 73.3714 17.7981 72.3172 17.7981C71.2622 17.7981 68.6992 18.9165 68.6992 18.9165L67.3428 17L64.3285 19.2359L63.2735 17L61.3142 19.3952L59.4765 17C59.4765 17 59.4765 30.4136 59.4765 38.7166C61.8571 38.5042 63.1236 38.5042 68.3473 36.3745C70.1558 37.6522 75.9832 46.3816 75.9832 47.2328C75.9832 48.084 76.9885 56.8143 76.9885 56.8143L78.0375 51.6078C78.0375 51.6044 76.9928 62.574 74.8708 66.3239Z" fill="#231F20"/>
<path d="M35.9351 51.5618C35.3494 47.3169 37.6872 43.5825 41.1519 43.2211C44.6226 42.8597 47.9067 46.0119 48.4881 50.2567C49.073 54.4981 46.7301 58.2335 43.2645 58.5965C39.7972 58.9553 36.5166 55.8066 35.9351 51.5618Z" fill="#F1C9A5"/>
<path d="M75.5636 58.5965C72.0954 58.2335 69.7551 54.4973 70.3417 50.2567C70.9214 46.0119 74.2063 42.8597 77.6744 43.2211C81.14 43.5825 83.4778 47.3169 82.8929 51.5618C82.3115 55.8066 79.0309 58.9553 75.5636 58.5965Z" fill="#E4B692"/>
</g>
<defs>
<clipPath id="clip0">
<rect width="118" height="118" fill="white"/>
</clipPath>
</defs>
</svg>
