<?xml version="1.0" standalone="no"?>
<!DOCTYPE svg PUBLIC "-//W3C//DTD SVG 1.1//EN" "http://www.w3.org/Graphics/SVG/1.1/DTD/svg11.dtd">
<svg xmlns="http://www.w3.org/2000/svg">
<metadata>Copyright (C) 2019 by original authors @ fontello.com</metadata>
<defs>
<font id="support" horiz-adv-x="1000" >
<font-face font-family="support" font-weight="400" font-stretch="normal" units-per-em="1000" ascent="850" descent="-150" />
<missing-glyph horiz-adv-x="1000" />
<glyph glyph-name="flow-tree" unicode="&#xe800;" d="M868 112q72-34 72-112 0-50-35-85t-85-35-85 35-35 85q0 78 72 112l0 114q0 78-76 78l-100 0q-44 0-78 12l0-204q72-34 72-112 0-50-35-85t-85-35-85 35-35 85q0 78 72 112l0 204q-30-12-76-12l-100 0q-34 0-53-19t-22-33-3-26l0-114q72-34 72-112 0-50-35-85t-85-35-85 35-35 85q0 78 72 112l0 114q0 64 43 118t131 54l100 0q76 0 76 52l0 140q-72 34-72 110 0 50 35 85t85 35 85-35 35-85q0-76-72-110l0-140q0-52 78-52l100 0q86 0 129-54t43-118l0-114z m-678-112q0 30-21 50t-49 20-48-20-20-50q0-28 20-48t48-20 49 20 21 48z m212 700q0-28 20-48t48-20 49 20 21 48q0 30-21 50t-49 20-48-20-20-50z m138-700q0 30-21 50t-49 20-48-20-20-50q0-28 20-48t48-20 49 20 21 48z m280-68q28 0 49 20t21 48q0 30-21 50t-49 20-48-20-20-50q0-28 20-48t48-20z" horiz-adv-x="940" />

<glyph glyph-name="flow-branch" unicode="&#xe801;" d="M640 650q0-80-74-110-6-58-28-101t-61-69-68-38-75-26q-42-14-63-22t-47-24-38-40-16-60q70-30 70-110 0-50-35-85t-85-35-85 35-35 85q0 78 72 112l0 378q-72 34-72 110 0 50 35 85t85 35 85-35 35-85q0-76-72-110l0-204q40 30 138 60 58 18 84 29t51 41 29 76q-70 32-70 108 0 50 35 85t85 35 85-35 35-85z m-588 0q0-28 20-48t48-20 49 20 21 48q0 30-21 50t-49 20-48-20-20-50z m68-668q28 0 49 20t21 48q0 30-21 50t-49 20-48-20-20-50q0-28 20-48t48-20z m400 600q28 0 49 20t21 48q0 30-21 50t-49 20-48-20-20-50q0-28 20-48t48-20z" horiz-adv-x="640" />

<glyph glyph-name="code" unicode="&#xe802;" d="M917 600l0-667-834 0 0 667 834 0z m83 250l-1000 0 0-1000 1000 0 0 1000z m-458-458l0-69 134-56-134-56 0-69 208 91 0 67-208 92z m-292-92l0-67 208-91 0 69-134 56 134 56 0 69-208-92z" horiz-adv-x="1000" />

<glyph glyph-name="flow-cascade" unicode="&#xe803;" d="M520 120q50 0 85-35t35-85-35-85-85-35q-80 0-110 74l-164 0q-88 0-131 54t-43 118l0 464q-72 34-72 110 0 50 35 85t85 35 85-35 35-85q0-76-72-110l0-114q0-78 78-78l164 0q30 72 110 72 50 0 85-35t35-85-35-85-85-35q-80 0-110 74l-164 0q-42 0-78 16l0-194q0-78 78-78l164 0q30 72 110 72z m0 300q-28 0-49-20t-21-50q0-28 21-48t49-20 49 20 21 48q0 30-21 50t-49 20z m-470 280q0-28 21-48t49-20 49 20 21 48q0 30-21 50t-49 20-49-20-21-50z m470-768q28 0 49 20t21 48q0 30-21 50t-49 20-49-20-21-50q0-28 21-48t49-20z" horiz-adv-x="640" />

<glyph glyph-name="empty" unicode="&#xe804;" d="M121 24c-76 88-121 202-121 326 0 276 224 500 500 500 123 0 236-45 323-118l100 100 59-59-917-908-53 50 109 109z m-44 326c0 234 189 423 423 423 102 0 196-36 269-96l-594-598c-61 74-98 168-98 271z m798 196c31-58 48-125 48-196 0-234-189-423-423-423-66 0-133 18-192 47l-56-59c73-44 153-65 248-65 276 0 500 224 500 500 0 84-32 196-71 249l-54-53z" horiz-adv-x="1000" />

<glyph glyph-name="deadline" unicode="&#xe805;" d="M698 361l47-51-264-290-141 152 47 50 94-101 217 240z m-427 489c28 0 51-23 51-50v-87h374v87c0 27 22 50 50 50 28 0 50-23 50-50v-87h141c47 0 84-37 84-84v-689c0-46-37-84-84-84h-853c-46 0-84 38-84 84v689c0 47 38 84 84 84h137v87c0 27 22 50 50 50z m425-197v-38c0-28 22-51 50-51 28 0 50 23 50 51v38h141c13 0 23-11 23-24v-138h-899v138c0 13 10 24 23 24h137v-38c0-28 22-51 50-51 28 0 51 23 51 51v38h374z m264-223h-899v-490c0-13 10-23 23-23h853c13 0 23 10 23 23v490z" horiz-adv-x="1021" />

<glyph glyph-name="signin" unicode="&#xe80b;" d="M423 248l70 71-459 0c-9 0-17 3-24 10-7 6-10 14-10 24 0 9 3 18 10 24 7 7 15 10 24 10l459 0-70 71c-7 7-11 15-11 25 0 9 4 17 10 24 7 7 15 10 25 10 9 0 18-3 25-10l129-129c7-7 10-16 10-25 0-10-3-18-10-25l-129-129c-7-7-16-10-25-10-10 0-18 3-25 10-6 6-10 15-10 24 0 10 4 18 11 25z m516 295c26-61 38-124 38-190 0-66-12-130-38-190-25-59-60-110-105-156-45-45-97-80-155-105-61-25-124-38-190-38-79 0-152 18-221 53-67 33-123 80-169 140-5 8-8 16-6 26 1 9 5 17 13 23 8 5 16 8 26 6 9-1 17-5 23-13 38-52 87-92 144-121 60-30 123-45 190-45 57 0 111 11 163 33 50 21 95 51 133 90 39 39 70 83 91 134 22 51 33 106 33 163 0 57-12 112-34 163-21 50-51 95-90 134-38 39-83 68-133 89-52 23-106 34-163 34-67 0-130-15-190-45-57-29-106-70-144-121-6-8-14-12-23-14-10-1-18 1-26 7-8 6-12 13-13 23-2 10 1 18 6 26 46 60 102 106 169 140 69 35 142 53 221 53 66 0 129-13 190-39 58-24 110-59 155-105 45-45 80-97 105-155z" horiz-adv-x="977" />

<glyph glyph-name="search" unicode="&#xe80c;" d="M988-91l-59-59-291 291c-70-57-153-85-247-85-108 0-200 38-276 114-77 77-115 169-115 277 0 108 38 200 115 276 76 77 168 115 276 115 108 0 200-38 277-115 76-76 114-168 114-276 0-93-28-174-85-245l291-293z m-844 288c67-67 149-100 247-100 96 0 178 34 247 103 69 68 103 151 103 247 0 96-34 178-103 247-69 68-151 103-247 103-96 0-178-35-247-103-68-69-103-151-103-247 0-98 35-181 103-250z" horiz-adv-x="1000" />

<glyph glyph-name="eye1" unicode="&#xe814;" d="M1656 359l5-4-26-26c-144-144-257-244-338-299-155-104-311-155-467-155-112 0-219 24-322 73-102 49-181 98-235 147-55 49-136 127-243 234l-30 30 4 4c159 162 294 279 407 351 138 86 278 129 419 129 271 0 547-161 826-484z m-826 415c-126 0-246-34-359-101-112-68-237-173-376-314 156-156 265-254 329-294 121-81 256-121 406-121 101 0 203 25 305 75 103 51 182 101 238 150 56 49 122 111 197 186-107 118-213 213-320 285-136 89-275 134-420 134z m0-761c-95 0-176 34-244 102-68 67-102 149-102 244 0 95 34 177 102 244 68 68 149 102 244 102 96 0 177-34 245-102 68-67 101-149 101-244 0-95-33-177-101-244-68-68-149-102-245-102z m0 623c-75 0-139-28-194-82-55-55-82-120-82-195 0-75 27-140 82-195 55-54 119-82 194-82 75 0 140 28 195 82 55 55 82 120 82 195 0 75-27 140-82 195-55 54-120 82-195 82z m139-277l69 0c0-58-20-107-61-147-40-40-89-61-147-61-57 0-106 21-147 61-40 40-60 89-60 147 0 58 20 107 60 147 41 40 90 61 147 61l0-70c-34 0-66-13-95-39-29-26-43-57-43-95 0-37 14-70 41-99 27-29 60-43 97-43 38 0 70 13 98 41 27 27 41 59 41 97z" horiz-adv-x="1679" />

<glyph glyph-name="book" unicode="&#xe81c;" d="M1255 741l0-758-55-6 0 873c-212-6-409-42-545-126-136 84-333 120-546 126l0-873-54 6 0 758-55 0 0-819 494 0c81 0 90-54 161-54 71 0 79 54 160 54l495 0 0 819-55 0z m-655-786c-118 46-251 76-425 89l0 719c143-12 303-41 425-115l0-693z m535 89c-174-13-307-43-426-89l0 693c122 74 283 103 426 115l0-719 0 0z" horiz-adv-x="1310" />

<glyph glyph-name="product" unicode="&#xe825;" d="M514-120c-8-7-18-12-29-12-1 0-2 0-3 0-7 0-14 1-20 4l-439 209c-14 6-23 20-23 36l0 493c0 29 30 49 56 36l423-192 342 156-344 157-240-92c-21-7-44 3-51 23-8 21 2 44 23 52l256 97c10 4 21 4 30-1l439-200c16-7 24-23 23-38 0 0 0-164 0-491 0-16-8-30-22-36l-421-201z m11 94l353 168 0 406-383-174c-10-5-22-5-33 0l-382 174 0-406 365-174 0 214c0 22 18 40 40 40 22 0 40-18 40-40l0-208z" horiz-adv-x="957" />

<glyph glyph-name="info" unicode="&#xe826;" d="M431 541c0 32 16 47 47 47 31 0 47-15 47-47 0-31-16-47-47-47-31 0-47 16-47 47z m94-403l38 0 0-19-150 0 0 19 37 0 0 281-37 0 0 19 112 0 0-300z m-37 694c134 0 249-48 344-143 95-95 143-210 143-345 0-134-48-249-143-344-95-95-210-143-344-143-135 0-250 48-345 143-95 95-143 210-143 344 0 135 48 250 143 345 95 95 210 143 345 143z m0-935c123 0 228 43 316 131 87 88 131 193 131 316 0 124-44 229-131 317-88 87-193 131-316 131-124 0-229-44-317-131-87-88-131-193-131-317 0-123 44-228 131-316 88-88 193-131 317-131z" horiz-adv-x="978" />

<glyph glyph-name="plus" unicode="&#xe82d;" d="M435 415l0 435 130 0 0-435 435 0 0-130-435 0 0-435-130 0 0 435-435 0 0 130 435 0z" horiz-adv-x="1000" />

<glyph glyph-name="folder-o" unicode="&#xe836;" d="M48-102l940 0 0-48-988 0 0 1000 364 0c34 0 65-16 85-42l87-113 500 0 0-226-48 0 0 179-476 0-100 131c-12 15-29 23-48 23l-316 0 0-904z m161 595l1002 0-206-640-1002 0 206 640z m762-592l175 544-902 0-176-544 903 0z" horiz-adv-x="1214" />

<glyph glyph-name="folder" unicode="&#xe837;" d="M48-102l1178 0 0 666c0 33-26 60-59 60l-656 0-101 152c-11 16-29 26-49 26l-313 0 0-904z m1119 773c59 0 107-47 107-107l0-714-1274 0 0 1000 361 0c36 0 69-18 89-48l87-131 630 0z" horiz-adv-x="1274" />

<glyph glyph-name="spin6" unicode="&#xe839;" d="M855 9c-189-190-520-172-705 13-190 190-200 494-28 695 11 13 21 26 35 34 36 23 85 18 117-13 30-31 35-76 16-112-5-9-9-15-16-22-140-151-145-379-8-516 153-153 407-121 542 34 106 122 142 297 77 451-83 198-305 291-510 222l0 1c236 82 492-24 588-252 71-167 37-355-72-493-11-15-23-29-36-42z" horiz-adv-x="1000" />

<glyph glyph-name="ham-d" unicode="&#xe83a;" d="M58 792l0-884 1047 0 0 884-1047 0z m-58 58l1163 0 0-1000-1163 0 0 1000z m361-23l58 0 0-944-58 0 0 944z" horiz-adv-x="1163" />

<glyph glyph-name="skrepka" unicode="&#xe83b;" d="M214 789c-84 0-153-68-153-153l0-572c0-85 69-153 153-153 85 0 153 68 153 153l0 572c0 85-68 153-153 153z m0 61c119 0 215-96 215-214l0-572c0-118-96-214-215-214-118 0-214 96-214 214l0 572c0 118 96 214 214 214z m67-683l0 277c0 58-48 106-108 106-60 0-109-48-109-106l0-277-64 0 0 277c0 93 77 168 173 168 95 0 172-75 172-168l0-277c0-17-14-31-32-31-18 0-32 14-32 31z" horiz-adv-x="429" />

<glyph glyph-name="corner1" unicode="&#xe83d;" d="M1000 850v-997l-264 716-733 281h997z" horiz-adv-x="1000" />

<glyph glyph-name="settings" unicode="&#xe846;" d="M0 12l791 0c19 45 53 67 104 67 50 0 84-22 103-67l255 0 0-89-255 0c-19-45-53-68-103-68-51 0-85 23-104 68l-791 0 0 89z m0 380l254 0c19 45 54 67 104 67 50 0 85-22 103-67l792 0 0-89-792 0c-18-45-53-67-103-67-50 0-85 22-104 67l-254 0 0 89z m0 381l791 0c19 44 53 67 104 67 50 0 84-23 103-67l255 0 0-90-255 0c-19-45-53-67-103-67-51 0-85 22-104 67l-791 0 0 90z" horiz-adv-x="1255" />

<glyph glyph-name="nmiddle" unicode="&#xe854;" d="M1000 350c0-138-112-250-250-250-138 0-250 112-250 250 0 138 112 250 250 250 138 0 250-112 250-250z" horiz-adv-x="1500" />

<glyph glyph-name="arr-down" unicode="&#xe858;" d="M1079 354l-468-468c-29-29-75-29-104 0l-468 468c-29 29-29 76 0 104 29 29 75 29 104 0l342-342 0 734 147 0 0-734 343 342c29 29 75 29 104 0 29-28 29-75 0-104z" horiz-adv-x="1118" />

<glyph glyph-name="card" unicode="&#xe859;" d="M0 721c0 71 58 129 129 129h1161c72 0 129-58 129-129v-871h-291c1 5 1 11 1 16 0 62-50 113-113 113-62 0-113-51-113-113 0-5 1-11 1-16h-389c1 5 1 11 1 16 0 62-50 113-113 113-62 0-113-51-113-113 0-5 1-11 2-16h-292v871z m65 0c0 36 28 65 64 65h1161c36 0 65-29 65-65v-807h-168c-21 75-90 130-171 130-81 0-149-55-171-130h-271c-21 75-90 130-171 130-81 0-149-55-170-130h-168v807z m1161-226h-1032v-64h1032v64z m-1032-161h709v-65h-709v65z m1032 323h-1032v-65h1032v65z" horiz-adv-x="1419" />

<glyph glyph-name="log" unicode="&#xe85a;" d="M1066 734h-175c2 14 11 30 25 43 13 13 31 22 48 23h9c22-1 48-12 67-29 13-11 22-24 26-37z m-222-7c0 27 12 53 30 73h-606c-18 0-37-5-52-17-14-12-27-33-27-72v-13h169v-60h-169v-252h427v-59h-427v-53h169v-60h-169v-46h169v-60h-169v-83h421l3-20c2-23 5-48 19-69 14-18 39-37 97-37 53 0 80 26 95 52 7 13 12 27 14 37 2 5 2 9 3 12 0 1 0 2 0 2 0 1 0 1 0 1l0 0 1 95c0 34 0 77 0 123h-173v60h173l1 34c0 48 0 97 0 144h-485v53h486c0 19 0 36 0 53h-374v53h374c0 42 0 74 0 93 0 8 0 13 0 16z m-576 120h695c4 0 8 0 12 0 34-2 69-18 96-41 26-24 47-57 45-96l-1-22h-224c-1-72-1-228-2-373 0-82-1-160-1-218l-1-95c0 0 0 0 0 0l0 0 0-1 0-1-23 2c23-2 23-2 23-2l0 0 0 0 0 0 0 0 0 0 0-1c0 0 0-1 0-1 0-1 0-3 0-5-1-4-2-9-4-16-3-13-9-31-19-49-22-38-63-75-135-75h-600c-48 0-80 27-99 59-18 30-25 65-27 89l-1 24h140v686c0 50 17 85 44 107 26 22 57 29 82 29z m327-937c2-4 5-7 8-11h-474c-28 0-46 15-59 36-8 14-14 30-17 44h516c3-21 9-46 26-69z" horiz-adv-x="1119" />

<glyph glyph-name="mpr" unicode="&#xe85b;" d="M406 327h294 82c10 0 26-2 36 2 10 5 6 28 6 38v99c0 13-1 31 17 32 15 1 28-17 37-26l90-91 133-133c13-12 43-33 41-53-2-24-42-52-58-68l-172-172c-15-15-55-72-79-59-14 8-9 32-9 44v133h-347v-42h302c0-43-10-101 4-141 14-37 58-50 92-31 21 12 36 34 54 50 41 39 81 79 121 119l93 93c21 21 42 43 42 74 0 63-86 120-127 161l-118 118c-19 19-39 45-62 59-33 18-83 8-96-30-12-38-3-91-3-130h-294-82c-10 0-26 3-35-2-11-5-7-28-7-38v-99c0-13 1-31-17-32-14-1-27 17-37 27l-90 90-133 133c-12 13-42 33-41 53 2 24 42 52 58 68l173 172c14 15 55 72 78 59 14-8 9-32 9-44v-133h347v42h-302c0 42 9 95-2 136-11 40-58 57-94 36-17-10-30-28-45-41-44-40-85-83-127-125l-93-93c-22-22-44-44-45-77-2-61 85-118 124-158l119-118c20-20 40-47 64-61 34-20 85-8 97 32 10 39 2 88 2 127z" horiz-adv-x="1185" />

<glyph glyph-name="role" unicode="&#xe85c;" d="M374 850c-122-2-236-24-305-59-26-13-44-25-56-41-5-5-10-17-12-23-1-5-1-397 0-409 9-79 50-179 105-258 61-88 137-151 223-187 20-9 52-19 69-23 2 0 5 0 13 2 72 19 136 54 195 107 12 11 37 36 48 49 47 55 85 119 113 188 13 34 24 70 29 100 4 24 4 5 4 225 0 200 0 201-1 207-7 27-36 51-87 72-69 29-178 48-282 50-12 0-25 0-27 0-2 0-15 0-29 0z m66-45c106-4 199-21 265-50 24-11 45-25 49-33 2-3 2-10 2-192 0-191 0-202-2-218-9-56-34-124-70-185-34-58-76-109-124-149-27-23-63-45-95-59-7-4-20-9-20-9 0 0-1 31-1 70v70h-44-44v-70c0-39-1-70-1-70-1 0-22 10-33 15-84 41-158 116-212 213-19 34-34 68-46 103-8 26-14 47-17 70l-2 10 0 199c0 195 0 199 1 202 2 3 11 11 18 16 4 3 12 7 18 11 79 39 216 61 358 56z m-226-163c-44-4-81-31-112-81-3-5-6-9-6-9 0 0 4 2 8 5 36 25 68 38 96 39 26 2 44-7 65-29 11-11 17-18 28-37 9-14 12-18 19-21 9-5 19-5 29 0 12 6 19 19 18 33-1 9-2 12-12 25-3 4-7 10-10 14-35 45-76 66-123 61z m348 7c-25-2-48-12-70-29-9-7-24-22-33-33-4-6-9-12-12-15-8-10-11-20-10-30 3-19 23-33 41-29 7 2 13 5 17 9 2 2 6 8 11 15 23 36 43 55 68 63 9 3 17 4 28 4 32-2 62-14 108-44l2-1-2 3c-11 19-30 42-46 56-29 24-66 35-102 31z m21-137c-26-3-51-13-66-27l-4-4 3-3c18-14 38-23 63-27 10-1 32-1 42 0 25 4 46 13 64 28l3 2-6 4c-16 14-40 24-65 27-7 1-28 1-34 0z m-402 0c-25-4-49-13-66-28l-2-2 4-4c5-5 15-11 23-15 40-19 93-17 130 5 5 3 15 10 17 12 1 1 1 2-3 5-16 14-40 24-65 27-10 1-28 1-38 0z m-93-202c1-1 26-41 55-87l54-85 79 0h79l22 21 22 22 23-22 22-21h79 78l55 86c62 97 57 88 56 88 0 0-30-24-67-54l-66-55h-45-45l-33 33-34 33h-23-22l-34-33-33-33h-45-45l-67 55c-51 42-67 55-65 52z" horiz-adv-x="800" />

<glyph glyph-name="layout" unicode="&#xe85d;" d="M214 850v-143h572v143h71v-143h143v-71h-143v-572h143v-71h-143v-143h-71v143h-572v-143h-71v143h-143v71h143v572h-143v71h143v143h71z m572-786v572h-572v-572h572z" horiz-adv-x="1000" />

<glyph glyph-name="layout-view" unicode="&#xe85e;" d="M214 707v143h-71v-143h-143v-71h143v-572h-143v-71h143v-143h71v143h72v71h-72v572h572v-286h71v286h143v71h-143v143h-71v-143h-572z m840-662c-106 120-211 180-313 180-54 0-105-15-152-45-46-28-100-73-160-134 31-32 55-56 71-71 16-14 37-31 65-51 28-21 56-35 84-44 28-8 59-12 92-12 27 0 54 4 81 14 28 9 50 18 67 26 17 9 39 24 66 46 27 23 43 37 50 44 7 6 24 22 49 47z m-313-126c-34 0-64 13-89 38-24 25-36 55-36 89 0 35 12 65 36 90 25 25 55 37 89 37 35 0 64-12 88-37 25-25 38-55 38-90 0-34-13-64-38-89-24-25-53-38-88-38z m13 140c-9 8-13 19-13 32 0 10 4 20 11 29h-11c-20 0-38-7-51-22-14-14-21-31-21-52 0-20 7-38 21-53 13-14 31-21 51-21 21 0 38 7 52 21 14 15 21 33 21 53v10c-10-6-19-10-28-10-13 0-24 5-32 13z" horiz-adv-x="1071" />

<glyph glyph-name="layout-add" unicode="&#xe85f;" d="M214 850v-143h572v143h71v-143h143v-71h-143v-286h-71v286h-572v-572h286v-71h-286v-143h-71v143h-143v71h143v572h-143v71h143v143h71z m572-857h-143v71h143v143h71v-143h143v-71h-143v-143h-71v143z" horiz-adv-x="1000" />

<glyph glyph-name="layout-edit" unicode="&#xe860;" d="M200 717v133h-67v-133h-133v-67h133v-533h-133v-67h133v-133h67v133h200v67h-200v533h533v-200h67v200h133v67h-133v133h-67v-133h-533z m774-374l-79 79-381-380-74-154 153 74 381 381z" horiz-adv-x="1000" />

<glyph glyph-name="if" unicode="&#xe861;" d="M427-4c236 0 427 191 427 427 0 236-191 427-427 427-236 0-427-191-427-427 0-110 42-210 110-286l28-28c4-5 9-9 14-13l275-243v143z m-193 614c0 24 20 44 45 44h44c24 0 44-20 44-44v-38c0-25-20-45-44-45h-44c-25 0-45 20-45 45v38z m0-102h133v-348h-50c-46 0-83 37-83 82v266z m184 51c0 52 42 95 95 95l133-6-16-76-50-4c-17-2-29-15-29-32v-28h63v-95h-63v-253h-133v399z" horiz-adv-x="854" />

<glyph glyph-name="lookma" unicode="&#xe862;" d="M661 836c-3 0-6 0-9 0-24 0-48-7-72-15-25-8-42-10-69-10l-1 0c-1 0-1 0-2 0-2 0-5 0-8-1-7 0-16-1-26-2-9-1-19-2-27-4-4-1-8-1-11-2-3-1-5-2-6-2 0 0-1-1-1-1-46-17-91-53-108-69-6-8-14-16-21-23 0 0-1-1-1-1-7-7-14-14-20-21-4-4-8-9-12-13-1-2-3-4-5-6 1 0 2-1 2-1 8 2 16 3 23 4 8 0 16 0 22-4 2-1 8-5 13-8 2-1 5-3 6-4 0-1 1-2 2-2l0 0c0-1 2-4 0-7-2-4-5-4-6-4-1 0-2 0-2 0-1 0-1 0-2 0 2-1 3-3 3-5-1-3-4-6-7-6-16 0-31 3-45 5-1 0-2 1-2 1-10 1-20 3-30 4-6-6-12-12-18-18-6-7-11-14-15-21-1-2-2-3-3-5-4-6-8-13-12-19-15-20-28-43-39-66 0 0 0 0 0-1-1-12-4-23-8-33-1-3-2-5-3-8-3-7-5-14-7-21-1-2-1-4-2-6-2-8-4-17-6-26 4-22 9-44 14-65 6-26 9-55 11-81l0 0 0-1c0 0 0 0 0 0 1-3 1-6 2-10 0-7 1-16 1-24 0-3-3-6-6-6-4 0-7 3-7 6 0 8-1 15-1 22-1 4-1 7-2 11l0 0c0 0 0 0 0 0-2 21-4 43-7 64-1-1-2-1-3-2-1 0-1 0-2 0 0 0 0-1 0-1 3-8 4-17 4-25 0-4 0-8 0-12 0 0 0 0 0-1 0-3-1-7-1-10 0-8 1-16 2-24 1-4 3-7 5-10 3-6 5-14 7-20 1-2 1-4 2-6 3-9 6-15 10-20 2-2 3-4 2-6 2-2 2-4 1-6-1-6-5-15-11-23-1-2-3-4-4-6 1-5 2-10 4-15 5-16 15-32 25-46 2-5 5-9 8-13 4-6 8-13 13-19 7-10 15-20 25-26 5-4 10-9 13-14 1 0 1 0 1 0 4-5 7-9 11-12 8-6 15-13 23-19 1-1 1-2 2-2 7-6 13-12 20-18 3-2 3-6 1-9-2-3-6-3-9-1-7 6-14 12-21 18 0 0-1 1-2 2-7 6-15 13-22 19-5 4-9 8-13 13 0 0 0 0-1 1-3 4-7 8-11 11-6 4-12 10-17 15 0-6-1-13-1-20l0 0c-1-12-1-25-1-37 0-4-3-7-7-7-4 0-7 3-7 7 0 13 1 25 2 38l0 0c0 12 1 24 1 36-4 6-8 12-12 17-2 5-5 9-7 12-10 15-20 33-27 50-1 3-2 7-3 11-2-1-5-1-8 0-1 0-3 1-4 1-14 3-28 7-39 21-5 8-10 17-14 25 0 2-1 4-2 5-5 10-11 19-17 27-2 3-4 6-6 8-4 6-9 13-14 19-11 17-22 42-26 67-3 25 0 52 18 70 10 9 22 12 34 10 11-2 23-8 33-15 7-5 14-11 20-16 0 6 1 12 2 19 1 7 2 15 4 23-2 8-3 16-5 25-1 5-3 11-6 17 0 2-1 3-1 5-3 8-6 16-6 25 0 4 3 7 6 7 4 0 7-3 7-7 0-6 2-13 5-21 1-1 1-2 2-4 2-6 4-12 5-18 0 0 0 0 0 0 1 2 1 4 2 6 2 9 5 17 8 24 1 2 2 5 3 7 3 7 5 13 6 21-2 2-3 5-2 8 13 24 27 51 44 74 4 6 8 11 11 17 1 2 2 4 4 6 4 8 10 16 17 23 3 3 6 7 9 10-5 0-11-1-17-1l-1-1c-7 0-14-1-21-1-1 0-2 0-3 0 0 0-1 0-2 0 0 0 0 0 0 0 0 0-1 1-3 2-1 1-2 2-2 5 0 2 1 4 2 5 1 1 2 1 2 1 0 0 0 0 0 0 1 1 2 1 3 1 3 1 9 2 16 3 6 1 14 2 21 3-2 1-4 3-4 6 0 4 3 7 7 7 9 0 18-1 28-2 3 4 7 8 10 12 4 5 8 9 12 14 6 7 13 14 20 21 1 1 1 1 2 1 7 8 14 15 20 22 0 1 1 1 1 1 17 17 63 55 112 73 2 1 5 2 9 3 3 1 7 1 11 2 9 2 19 3 29 4 10 1 19 2 26 3 3 0 6 0 8 0 1 0 2 0 2 0l1 0 0 0c0 0 0 0 0-6l0 6c0 0 0 0 0 0 27 0 42 2 66 10 24 7 50 15 76 15 2 0 5 1 8 1 0 0 1 0 1 0 4 0 8 0 12 0 7 0 16-1 22-7 8-6 14-12 19-19 1-1 2-2 3-3 5-6 9-10 13-15 3-3 3-7 0-10-2-2-6-2-9 0-5 6-10 11-14 16-1 2-2 3-3 4-5 6-11 12-17 17-3 2-8 4-15 4-3 0-6 0-10 0 0 0-1-1-1-1z m-403-186c4-1 9-1 13-2 1 0 1 0 2-1 13-2 25-4 38-5-7 1-13 3-19 4l0 0c-9 2-18 4-27 6-2-1-4-1-6-2-1 0-1 0-1 0z m61-7c0 0 0 0 0 0 0 0 0 0 0 0 0 0 0 0 0 0z m-199-263c-1-7-2-14-2-20 4-5 7-10 10-15 0 1 0 1-1 2-2 11-5 22-7 33z m-16-25c-7 8-16 16-25 23-10 7-20 11-28 13-9 1-16-1-23-7-14-13-17-34-13-58 3-23 13-46 23-61 5-7 9-13 13-19 3-2 5-5 7-8 6-9 13-18 18-29 1-2 2-3 3-5 4-8 7-16 12-23 8-10 17-13 31-16 2-1 3-1 4-1 1 0 1 0 2 0-2 10-3 19-4 29 0 4 0 8-1 13-1 6-1 12-2 19-1 9-2 18-3 27-8 17-15 36-16 54 0 17 1 33 2 49z m13-59c0 2 0 5 0 7 0 5-1 9-1 14-1-4-1-7 0-10 0-4 0-7 1-11z m-1 35c0 3 0 5 0 8 2-2 3-4 3-6 0 0 0 0 1 0-1-1-2-1-2-1-1 0-2 0-2-1z m21-126c0-4 0-8 1-11 0-6 1-11 1-17 3 5 5 11 7 14-4 4-7 9-9 14z m501 563c-1 0-2-1-3-1 0 0 1 0 1 0 1 0 1 1 2 1z m25 2c0 0 1 0 1 0 0 0 1 0 1 1 2 1 4 2 6 3 1 0 1 1 2 1 3 2 7 4 10 7 1 0 2 1 3 2 0 1 1 3 1 5 0 3-2 5-4 6-1 0-3 1-3 1-1 0-2 0-2-1-2 0-4 0-6-1-1 0-2 0-3 0-15-4-32-8-45-19-6-5-11-10-15-16-7-4-13-8-16-16-2-2-2-6-3-8-5-8-11-15-16-23-15-19-30-38-42-60 0 0 0-1 0-1-3-4-5-8-8-12 0 0 0 0 0 0 0 0 0 0 0 0 0 0 0 0 0-1 0 0-1 0-1 0l0 0c0 0 0-1 0-2 0 0 0-1 0-2 1-2 2-4 4-5 2-1 3 0 4 0 1 0 2 0 2 1 0 0 1 0 1 0 0 1 0 1 0 1 0 0 1 0 1 0 0 1 1 2 2 3 1 2 4 5 6 8 5 7 11 16 13 19 1 1 2 2 2 3 5 6 10 12 15 18 5 7 10 13 14 20 2 2 3 4 4 6 3 5 6 9 9 14 2 2 3 5 3 8 1 0 1 1 1 1 4 6 8 12 13 17 6 3 14 4 21 6 1 0 2 0 2 0l0 0c0-1 1-1 2-1 1 1 3 1 5 1 5 0 10 1 14 1 5 1 9 1 11 2 0 0 0 0 0 0l0 0c0 0 1 0 2 0 0 1 1 1 2 2 1 2 1 4 0 7 0 2-2 3-2 3-1 0-2 0-2 1-1 0-2 0-2 0l0 0c0 0 0 0-1 0-1 0-3 0-6 0z m73 23c3 2 8 1 9-2 3-5 6-10 9-14 10-16 20-33 27-51 2-8 6-15 11-23 1-2 2-4 3-7 6-10 11-21 13-33 0-1 1-4 3-7 1-1 2-2 3-3 0 1 0 2 0 3-1 8-3 19-3 20-3 10-7 20-12 29-1 2-2 3-2 4-4 7-8 14-11 22 0 2-1 3-1 4 0 1 0 2 0 2 0 1 0 1 0 1 0 1 0 2 0 3 0 0 2 4 6 4 2 0 3 0 4-1 0 0 1-1 1-1 1-1 2-2 2-2l0 0c0-1 1-3 1-5 3-7 6-14 9-21 2-3 5-6 7-10l0-1c3-3 5-7 8-11 9-17 16-35 22-52 2-6 4-12 6-19 1-2 2-4 3-6l0-1c1-2 1-4 2-7 2-4 4-8 6-10 6-7 10-16 13-24 1-3 2-6 3-9 2-5 3-10 5-14 5-10 8-21 11-31 1-3 2-6 3-9 5-13 9-25 16-35 13-19 18-46 22-66 3-17 5-35 7-54 1 1 2 2 3 2 4 0 7-3 7-7 0-33-1-67-1-101l0 0c-1-33-2-66-2-99 0-10 1-20 2-30 1-3 1-6 1-9 2-14 3-27 0-42-2-9-8-18-14-24-6-7-13-13-19-17-1-1-1-1-1-1 0-1-1-1-1-1-10-15-22-29-35-43-2-3-4-5-6-8-2-2-4-4-5-6 0 0-1 0-1 0 5 0 10 0 14-2 6-3 10-9 13-15 7-13 2-26-4-35-6-9-15-17-20-23-1 0-1-1-2-1-5-5-10-9-16-13-2-1-4-2-6-4-3-2-6-4-9-6-3-2-6-4-8-7-2-1-3-2-4-3-5-4-10-8-16-10-3-2-7 0-9 3-1 4 1 8 4 9 4 2 8 4 12 8 1 1 2 2 3 3 3 2 7 5 10 8 3 2 7 4 10 7 2 1 4 2 6 3 5 4 10 7 14 11 1 1 1 1 2 2 5 5 13 12 18 20 5 9 7 16 4 22-3 5-6 8-8 9-1 1-4 1-11-1-7-1-14-4-21-6-1-1-2-1-3-1-6-3-12-5-19-7 0 0-1 0-2 0 0 0-4 0-5 3-2 3-1 6-1 6 0 1 1 2 1 2 1 1 2 2 2 2 2 2 4 3 7 5 3 3 8 6 10 8 1 1 2 2 3 2 0 0 0 0 0 0 0 1 1 2 2 3 6 6 11 13 17 20 2 4 3 8 4 12 2 12-2 26-12 39-2 3-5 4-10 5-6 1-12 0-19-1-13-4-27-10-33-14-4-2-8-4-11-6-9-6-17-11-25-16-4-3-7-6-10-10-1-2-3-3-4-4-1-1-2-2-3-3 0 0-1 0-3 0-1 0-2 0-3 0-2 1-3 2-4 4 0 2 0 4 0 4l0 0c0 1 1 1 1 2 0 1 1 2 1 2 3 4 8 10 13 13 1 1 2 2 3 2 11 11 22 21 32 32 7 6 14 12 20 18 5 5 11 11 17 16 3 2 6 5 9 7 8 8 16 16 22 24 6 8 8 13 9 17 1 5 1 10 1 19 0 6-2 8-4 9-2 2-6 3-11 2-10-1-22-7-29-13-1-1-2-1-3-2-13-4-22-12-32-22-2-2-5-5-7-7-8-8-16-16-26-23-9-7-19-14-29-21-16-12-32-23-47-35-12-9-28-15-44-17-16-2-33-2-47 1-9 1-16 5-23 8-1 1-3 1-4 2-6 3-10 5-15 7-14 5-33 12-45 21-16 13-35 24-54 33-19 8-46 14-65 8-6-2-9-6-10-9-1-3-1-7 4-12l0-1c7-8 12-13 19-19 2-1 4-3 5-4l0 0c2-2 4-4 6-5 2-2 4-3 5-4 2-1 2-1 2-1 0 0 0 0 0 0 3-1 6-2 9-4 2-1 6-3 9-5 6-4 12-9 14-11 4-2 6-4 9-6 2-1 3-2 5-4 5-3 9-6 14-11 12-14 21-29 28-46 4-10 8-20 11-31 2-6 4-12 6-17 2-4 0-7-3-9-4-1-8 1-9 4-2 6-4 12-6 18-4 11-7 21-12 30-6 16-14 30-25 42-4 4-8 7-12 10-1 1-2 2-4 3-3 2-6 4-10 7-2 2-8 6-14 10-3 2-5 4-8 5-2 1-3 2-4 2 0 0 0 0 0 0-2 0-5 2-7 3-2 1-4 3-7 5-2 1-4 3-5 5l0 0c-2 1-4 3-5 3-8 7-14 14-20 21-1 0-1 1-1 1-7 8-10 17-7 25 3 8 10 15 19 17 24 8 54 1 74-8 20-9 40-20 57-34 11-8 28-15 41-19 6-3 12-6 17-8 1-1 3-2 4-2 6-3 13-6 19-7 13-3 28-3 43-1 15 2 28 7 38 14 15 13 32 24 48 36 10 7 19 13 28 20 9 7 16 14 24 22 2 2 5 5 8 8 10 9 21 19 36 24 9 8 23 15 36 16 6 1 14 0 19-4 6-4 10-11 10-19 1-9 1-16-1-23-2-7-5-13-11-22-7-9-16-18-24-25-4-3-7-6-10-9-5-4-11-9-16-14-4-4-8-8-12-11 8 3 17 6 27 8 7 2 15 3 22 2 7-1 15-3 19-10 9-11 14-24 15-36 6 7 12 15 18 22 4 4 9 9 13 13 2 2 5 5 7 7 6 7 12 13 16 21l0 0c0 0 1 1 1 1 0 1 1 1 1 1 0 1 1 1 2 1 2 1 4 1 6 0 0 0 1-1 1-1 1 10 0 20-1 30 0 3 0 6-1 9-1 10-2 21-2 32 0 33 1 66 1 99l0 1c1 17 1 34 1 52 0 0-1 0-1 0-4 0-7 3-7 6 0 33-3 67-8 99-4 20-9 45-20 60-8 12-13 26-17 39-1 3-2 6-3 10-4 10-7 19-11 28-2 5-4 11-6 17-1 2-2 5-3 7-2 8-5 15-10 20-4 4-6 10-8 15-1 2-2 5-3 7-1 3-1 5-2 6-3 8-5 14-7 21-2 5-3 9-5 13 0 0 0-1 0-2 0-2-1-4-2-7-1-2-3-5-7-6-4 0-7 1-9 3-3 2-6 6-9 9-2 4-5 9-6 13-1 10-5 19-11 29-1 2-2 4-3 6-4 8-9 16-12 25-6 17-15 32-25 48-3 5-6 10-9 15-2 3-1 7 2 9z m120-827c2 1 4 1 6 2-1 0-2 1-3 2-1-1-2-3-3-4z m-70 769c0 0 0 0 0 0 0 0 0 0 0 0z m32-86c0 0 0 0 0 0 0 0 0 0 0 0z m-132 32c-2 0-5 0-12-3-5-2-10-7-16-13 0-1-1-1-1-2-6-5-12-12-19-16-6-4-14-9-21-15-8-6-14-13-18-18-2-3-3-6-5-10-1-2-2-3-3-5-3-5-6-11-10-15-2-1-3-4-4-8 0-3-1-6-1-10 14 20 33 38 55 49 7 4 18 8 27 9 0 0 1 0 1 0 1 1 2 1 2 1 2 0 4 1 6 2 2 0 4 1 5 1 1 1 1 1 2 1 0 0 0 0 0 0 4 3 10 6 17 8 6 2 14 3 22 4 7 1 15 2 21 1-3 4-7 7-10 10-2 2-3 3-5 5-2 2-5 5-7 8-5 4-9 7-13 9-1 1-3 2-4 3-1 1-3 1-4 2-2 1-4 2-5 2z m56-53c-2 0-4 1-7 1-6 0-13 0-20-1-8-1-15-2-21-4-6-2-10-4-12-5-1-1-2-2-3-2 0 0-1-1-2-1-2-1-4-1-6-2-2-1-4-1-6-2-2 0-4-1-5-1-7-1-16-4-23-8-25-12-45-35-60-59 3-9 10-21 19-32 9-11 19-21 28-25 1-1 3-3 5-4 2 2 4 3 6 2 4 0 7-1 11-1 38-6 73-11 109 0 2 1 5 2 8 3l1 0c3 1 6 2 10 3 3 1 7 2 9 3 3 1 4 2 4 2 2 2 4 3 5 4 2 1 4 2 6 3 2 1 4 1 6 2 1 0 3 1 5 1 4 0 7-3 7-7 0-3-3-6-7-6 0 0 0 0 0 0-1-1-1-1-2-1-1 0-3-1-4-1-2-1-3-1-4-2-1-1-1-1-1-1 0 0 0 0 0 0-3-3-6-5-9-6-4-2-8-3-11-4-4-1-8-2-11-3l0 0c-4-1-6-2-8-2-38-13-76-7-113-2 1 0 2-1 2-1 5-4 10-8 15-12 13-9 26-16 41-16 10 0 20-1 30-1l0 0c11-1 21-2 31-2 9 0 15 2 22 5 2 1 4 3 7 4 5 2 11 5 17 7 14 6 20 19 20 37 0 18-5 37-11 49-3 7-7 16-11 24-3-5-6-8-10-11-7-5-15-7-23-7-15-1-32 4-45 7-18 5-28 25-20 42 5 13 11 22 19 28 4 2 8 4 12 5z m60-50c-2 2-3 4-4 6-9 14-19 27-31 34-1-1-2-1-4-1-13 0-20-2-25-5-6-4-10-10-15-22-2-5-2-10 0-15 1 1 1 2 2 2 5 9 12 17 19 24 2 3 6 3 9 1 3-2 3-7 1-9-1-1-2-2-2-3 0-1 1-2 1-2 0-2 0-3 0-3l0 0c-1-1-1-1-1-1 0-1 0-1-1-2 1 0 1 0 1 0 3-1 4-3 5-5 0 0 0-1 0-2 1 1 2 1 2 1 1 1 4 2 6 0 1 0 1 0 1 0 1 1 2 2 3 3l0 0c0 0 0 1 1 1 0 0 0 0 0 1 0 0 1 0 1 0 0 0 1 1 2 1 1 0 4 0 5-1 2-2 3-4 3-6 0 0 0-1 0-1 0-1 0-1 0-1 0 0-1-1-1-1 0 0 0 0 0 0 0 0 0 0 0 0 0 0 0 0 0 0 0 0 0-1 0-1-1 0-2-2-3-3-1-2-2-4-3-5-1-2-2-3-2-4 0 0 0 0 0 0 1 0 2 0 3 0 7 0 12 2 16 5 5 3 8 7 11 14z m-234-47c4-9 11-18 18-27 9-12 21-23 31-29 6-3 12-8 18-13 2-1 3-2 5-4 5-4 10-8 15-11 14-10 30-19 49-19 9 0 19-1 29-2l0 0c11 0 21-1 32-1 11 0 20 3 28 6 3 2 5 3 8 4 4 3 9 5 14 7 23 8 29 29 29 49 1 20-6 41-12 54-6 14-13 31-23 46-9 15-21 30-35 39-14 8-29 20-41 31-1 2-3 3-4 5-3 2-6 5-8 8-5 4-10 9-16 12-1 1-2 1-3 2-2 1-4 2-5 3-3 1-5 2-8 3-7 1-12 0-20-4-8-3-15-10-21-16l0-1c-6-6-11-12-17-15-7-3-15-9-23-16-8-6-15-14-20-21-2-3-4-7-6-11-1-2-2-3-3-4-2-6-5-10-8-13-4-4-5-9-7-14-1-5-1-10-1-15 0-5 0-10 0-15 0-1 0-2 0-2 0-4 1-7 1-10 0-3 1-5 4-6z m-275 27c20 5 43 8 64 4 35-5 57-18 82-38 2 0 3-1 4-2-1 2 0 5 3 6 3 3 7 2 9-1 5-9 11-19 13-30 3-11 3-23-3-34-5-10-9-20-12-30-1-2-1-3-2-5-2-9-5-19-10-28-5-12-12-26-21-39-9-13-19-25-32-33-12-7-28-11-44-13-16-1-33 0-46 5-15 5-24 18-29 31-3 7-5 14-7 20 0 2 0 3-1 4-1 5-3 10-4 14-2 6-4 13-5 20 0 1-1 2-1 3-1 8-3 15-6 21-3 5-7 14-9 22-3 9-5 18-5 25 0 16 9 34 20 48 11 14 27 25 42 30z m153-104c-3-1-6-2-10-3-17-5-38-4-49-3-9 1-17 2-23 7-6 5-8 13-8 22 0 0-1 1-1 1-4 3-3 7-3 7 1 2 1 2 2 3 0 1 1 2 2 3 0 0 1 0 1 0 0 1 0 1 0 1-2 1-5 2-6 4-1 3 0 7 3 9 3 1 6 4 10 8 0 0 0 0 0 0 2 3 5 6 9 8-1 0-1 0-1 0-7-1-13-2-17-5-15-7-29-16-43-25-2-1-5-3-7-4-17-10-34-21-53-28-1-1-2-1-3-1 2-8 5-15 7-19 4-8 6-16 8-24 0-1 1-3 1-4 1-6 2-12 4-18 2-4 4-9 5-15 0-1 1-2 1-3 0-1 1-2 1-3 1 1 2 1 4 1 19-4 36-1 53 6 9 3 17 7 26 11 1 0 1 1 2 1 8 4 16 8 25 12 13 5 24 12 35 20 2 1 5 3 7 4 3 2 7 1 9-2 0 3 1 5 2 7 0 1 1 3 1 4 2 6 4 12 6 18z m-13-39c-1-1-3-2-4-3-11-8-24-16-38-22-8-3-16-7-25-11 0 0-1-1-1-1-9-4-18-8-27-12-18-6-36-10-58-7 1-1 1-2 1-2 5-12 12-21 21-24 11-4 26-6 41-4 14 1 28 5 38 11 10 6 20 16 28 28 8 12 15 26 20 37 2 3 3 7 4 10z m-187 55c0 0 0 1 1 1 18 7 34 17 51 27 2 2 4 3 7 5 14 9 29 18 44 25 6 3 14 5 21 6 2 1 4 1 6 1 5 1 9 2 13 3 4 1 7-2 8-5 1-1 1-2 0-3 4 0 7 0 10 1-15 9-31 15-52 18-19 3-40 1-58-4-12-3-25-13-36-26-10-12-16-27-16-39 0-3 0-6 1-10z m186 43c-4 3-10 4-19 4-7 0-15 0-21-2 0-3-3-5-5-6-5-1-8-2-10-4 0 0 1 0 2-1 0 0 1-1 1-1 2 1 3 2 4 3 0 0 0 0 0 0 1 0 2 1 2 1 1 0 1 1 1 1 1 0 2 0 3 0 0 0 4 1 6-2 1-2 1-4 1-5 1 0 3 0 4-2 2-1 2-4 2-5 0 0 0 0 0 0 0 0 0 0 0 0 1 0 4-1 5-3 0 0 0 0 0 0 0 0 0 0 0 0 1-1 2-1 4-2 1-1 2-2 2-4 1-1 0-3 0-4 1 1 1 1 2 1 0 0 2 1 3 2 1 0 2 0 2 0 1 0 3 1 5-1 1 0 2-1 2-2 1 0 1 0 1 1 3 2 7 1 9-1 3-3 2-7-1-10-4-3-8-6-13-9 0 0 0 0-1 0 4 0 7 1 10 2 7 1 12 4 15 8 2 2 3 7 0 15-4 11-7 18-12 23-1 1-3 2-4 3z m-29-51c0-1 0-1 1-1-2 0-3 0-4 0 1 0 2 0 3 1z m-33 18c-1-1-1-1-1-2 0 0 1-1 1-1 0 0 0 1 0 1 0 1 0 1 0 1 1 1 1 1 1 1 0 0-1 0-1 0 0 0 0 0 0 0z m1-8c-1 1-1 2-1 2 0-1 0-1 0-2 0 0 0 0 1 0z m-316-138c3 1 5 1 7-1 10-6 17-17 21-28 3-5 5-11 7-16 0-2 1-3 1-4 2-4 3-7 4-10 2-3 0-7-3-9-1 0-1 0-1 0 2-6 5-14 5-23 0 0 0-1-1-3-1-1-2-3-4-3-2-1-4-1-5 0 0 0-1 0-1 1-2 0-3 2-4 3-2 2-4 5-7 8-2 4-5 7-7 10l0 1c-2 3-3 4-4 5-5 7-8 13-11 20-2 6-3 13-3 21 0 1 0 7 1 13 0 3 0 6 1 8 0 1 0 2 1 4 0 0 1 2 3 3z m20-43c-1 3-2 6-4 9-2 5-5 10-8 15 0-4 0-8 0-9 0-7 0-12 2-17 2-5 4-10 9-16 0 0 0-1 1-1-2 4-2 9-2 14 0 2 1 4 2 5z m611-28c-1 0-2 0-2 0-4 0-7-3-7-7 0-1 0-2 1-2 0 0 0-1 0-1-1-1-2-2-2-4-1-1-1-3-1-5 1-3 3-5 5-6 3 0 5 0 6 0 3 0 7 2 11 4 2 1 5 3 6 7 1 4-1 8-3 9-1 0-1 1-1 1 0 1-1 3-2 4-2 3-6 4-9 1-1 0-1-1-2-1z m2-18c0 0 0 0 0 0 0 0 0 0 0 0z m-97-39c-1-1-2-3-3-4-3-3-7-3-10-1-3 2-3 6-1 9 1 1 2 3 3 4 5 6 10 12 16 18 7 7 16 14 26 14 4 0 7-3 7-7 0-3-3-6-7-6-5 0-10-4-17-10-5-5-10-11-14-17z" horiz-adv-x="960" />

<glyph glyph-name="edit" unicode="&#xe863;" d="M853 850l136-136-656-656-265-129 129 265 656 656z" horiz-adv-x="1000" />

<glyph glyph-name="trash" unicode="&#xe864;" d="M868 714h-205v51c0 42-33 75-74 75h-178c-41 0-74-33-74-75v-51h-204v-37h53l61-742c0-42 33-75 74-75h360c41 0 75 33 75 75l59 742h53v37z m-494 51c0 21 17 38 37 38h178c20 0 37-17 37-38v-51h-252v51z m345-828v-1-1c0-21-17-38-38-38h-360c-20 0-37 17-37 38v1 1l-60 740h554l-59-740z m-237 658h36v-615h-36v615z m181 0h-37l-27-615h37l27 615z m-289 0h-37l27-615h37l-27 615z" horiz-adv-x="1000" />

<glyph glyph-name="coolma" unicode="&#xe865;" d="M507 849c-22-2-64-9-99-17-41-10-137-42-150-50-17-11-42-38-70-74-26-35-28-38-54-59-16-15-21-21-43-52-8-12-17-26-22-31-10-13-23-32-31-49-7-13-8-16-8-27l-1-13 3 4c6 7 13 5 13-3 0-2-4-14-9-27-14-37-16-47-18-73-2-27-5-47-9-62-6-20-10-67-9-96 2-34 13-97 21-130 4-12 9-24 31-66 14-27 17-34 23-72 6-36 10-50 17-65 5-10 21-33 22-32 0 1-3 10-8 22-15 40-24 75-24 94l0 7 5-5c3-3 11-14 19-24 24-31 37-42 77-61 19-10 51-23 53-21 1 1-8 9-20 17-5 4-19 12-32 19-39 20-47 27-66 51-17 23-29 42-33 53-2 5-6 20-9 33-4 13-11 40-17 60-15 52-31 117-33 133-1 11-2 32-1 78 1 72 1 75 15 116 11 33 12 38 16 68 1 15 4 31 5 35 3 11 12 24 28 41 19 20 27 30 43 52 9 12 21 27 39 45 15 16 32 35 42 48 35 47 55 62 93 70 39 8 81 8 124 1 39-7 72-10 66-7-4 2-34 12-55 18-9 2-18 5-18 5-1 2 54 0 73-2 38-4 50-8 89-32 15-9 40-22 54-30 33-17 51-28 65-43 13-14 22-29 37-65 15-34 21-44 43-67 9-10 18-21 21-26 7-11 15-34 28-77 6-19 13-42 16-49 18-46 36-123 39-165 1-12 1-41 1-64 0-26 1-52 3-65 3-28 3-55 0-67-2-5-7-19-12-31-13-29-25-60-35-87-8-26-21-68-22-77l-1-6 5 2c6 4 20 31 35 72 7 17 18 44 25 60 24 50 31 73 31 95 0 11-3 21-12 54-13 43-6 96 21 148 10 20 20 30 42 43 10 6 18 12 19 13 6 8 6 21 2 68-4 55-4 60-12 97-11 49-14 60-18 65-5 7-16 14-33 20-8 3-16 7-16 7-2 2 3 28 6 37 9 21 45 38 73 33 40-6 82-42 105-90 7-14 22-58 27-80 17-71 15-132-7-177-4-9-15-27-25-42l-18-27 38 1 38 0 9-5c10-5 24-19 30-30 14-27 10-57-10-75-12-11-20-14-71-21-20-3-37-5-37-6 0 0-1-3-1-6l-2-7 21-1c43-2 64-6 85-17 16-7 31-20 33-28 4-14-7-29-24-34-5-1-24-2-60-2-49 0-66-1-64-4 0-1 21-4 54-8 40-5 59-14 83-38 13-13 16-17 22-28 10-22 10-21-5-28-35-16-50-18-94-12-49 7-70 13-106 28-14 5-47 13-50 11 0 0 2-4 5-7 15-17 30-39 41-61 4-10 7-13 7-10 0 7-6 29-13 45-4 9-7 16-7 16 0 1 6-1 12-4 34-14 80-25 131-30 35-4 48-1 86 21 6 4 11 7 11 7 1 1-7 26-11 34-5 9-13 17-36 34-10 7-18 14-18 15 0 1 8 8 19 15 11 8 21 15 23 16 2 2 2 6 3 14 1 21-6 29-45 48-13 6-24 12-24 14-1 3 7 11 17 16 26 13 36 25 40 48 4 20-1 38-14 58-16 24-28 29-69 32-12 0-22 1-22 2-1 0 4 10 11 22 24 45 31 67 35 113 2 27 0 45-11 89-17 76-32 109-64 142-21 23-44 38-65 44-12 4-34 4-46 0-23-6-44-23-52-40-7-17-7-38 0-53 2-4 14-17 26-30 40-40 47-58 50-117 1-17 2-39 3-49 1-11 2-23 1-28-1-8-2-9-7-13-4-3-13-8-21-12-17-8-22-14-31-32-7-14-18-30-24-36-3-2-3-2-4 1-1 2-2 31-2 64-2 66-3 73-13 100-10 25-28 61-44 86-27 43-32 52-44 98-12 46-17 56-46 90-9 10-23 28-31 38-23 29-26 32-81 74-39 30-48 35-73 37-19 2-33 1-57 0z m43-11c43-4 54-8 75-29 8-8 18-19 22-25 11-13 36-50 35-51-1-1-30 12-50 23-10 5-28 15-39 22-48 30-46 30-90 33-18 1-33 2-33 3-1 0-12 0-25-2-13-1-33-2-46-2h-22l4 4c11 8 18 11 34 11 11 0 19 1 29 4 21 6 38 9 54 11 15 1 17 1 52-2z m135-75c9-9 22-27 22-29 0-6-20 15-28 28-9 14-7 15 6 1z m76-108c12-16 22-31 24-38 3-10 4-40 2-37-2 1-41 84-44 93-1 4-1 3 3-1 3-3 9-11 15-17z m173-83c11-6 28-24 25-27-1 0-6 1-11 4-10 5-28 19-31 25-1 3-1 3 4 2 3 0 8-2 13-4z m-73-118c19-37 27-69 26-95l0-14-3 6c-3 6-23 63-32 89-5 16-9 35-9 43l0 5 4-6c2-4 8-16 14-28z m-845-238c1-6 4-15 6-21 1-5 6-25 10-43 5-17 11-42 15-55 11-34 23-80 22-80-2 0-28 44-34 59-16 37-28 132-25 197l1 25 1-35c1-26 2-39 4-47z m1000 606c-4-7-10-22-14-37-3-11-4-20-5-37l0-23 4 10c6 12 12 30 15 46 3 14 5 45 4 45-1 0-3-2-4-4z m-173-59c0 0 2-9 6-20 7-21 22-53 29-62 5-5 5-5 5-1 0 6-3 21-6 32-5 14-11 26-20 37-6 8-14 16-14 14z m354-57c-13-9-25-20-34-33-10-14-10-17-2-12 18 11 36 29 45 45 5 8 3 8-9 0z m-948-84c-28-6-56-22-78-46-35-37-47-64-45-102 2-35 15-58 49-83 20-15 43-27 64-32 20-6 44-5 63 1 78 26 106 84 83 167-3 7-7 19-11 26-5 11-8 15-19 26-18 16-43 35-54 40-7 3-10 4-27 4-10 0-22 0-25-1z m43-13c4-1 10-5 14-8 55-44 56-45 66-74 18-52 8-102-26-130-12-10-37-22-53-26-24-6-49-4-75 8-25 12-55 35-67 53-16 25-18 60-4 90 9 20 38 53 57 67 29 20 64 28 88 20z m-21-87c-7-3-16-10-20-16-2-5-3-9-3-22 0-9 0-17 1-18 0-1 9-1 20-1 17 0 20 0 25 3 11 6 15 19 12 37-2 11-4 14-13 17-8 3-14 3-22 0z m342 84c-12-3-29-12-43-22-35-26-78-83-87-116-4-14-3-31 3-42 5-11 27-34 38-41 19-10 45-15 92-17 41-2 55 3 77 26 13 12 28 34 36 50 9 18 11 36 8 50-3 9-43 90-48 96-12 14-51 22-76 16z m51-14c12-4 14-5 10-9-4-4-10-7-20-10-5-2-8-4-10-7-2-3-3-5-3-6 0 0 10 1 21 3 12 2 21 3 21 3 3-4 28-45 34-57 12-25 12-37-3-65-15-28-32-49-49-57-13-6-20-7-45-7-40 0-66 4-86 14-18 9-39 35-42 51-3 16 14 51 39 82 12 15 37 40 49 49 11 7 23 14 33 18 9 3 38 1 51-2z m-83-62c-5-3-12-8-14-11-5-5-5-7-6-18 0-10 0-13 4-20 3-5 8-11 12-14 5-4 7-5 15-5 12 0 22 4 29 11 18 18 0 62-26 62-2 0-8-2-14-5z m19-10c4-4 4-8 0-12-3-3-10-3-13 1-3 5-3 6 1 10 4 5 8 5 12 1z m16-29c1-4 0-7-4-7-3 0-5 5-3 8 1 2 6 2 7-1z m68-198c0-1 6-5 14-10l14-9-1-13c-3-37-9-67-22-111-20-70-27-85-51-107-22-20-55-42-79-52-11-4-52-14-76-19-43-8-71-8-102 0-21 6-56 19-65 25-10 6-28 24-27 25 1 0 8 2 17 4 15 3 18 5 13 7-2 0-8 2-14 4-7 2-15 4-18 4-9 0-19-4-23-10-3-4-10-27-8-28 0 0 4 2 9 6 6 3 10 6 11 6 1 0 5-4 10-9 20-20 43-33 85-44 27-7 41-8 66-7 46 2 118 19 149 35 18 9 50 34 66 48 21 21 28 35 45 92 14 45 22 83 27 129 0 5 1 9 2 10 0 0 5-5 10-11 5-6 11-14 15-18 5-6 6-6 6-4 0 5-6 24-10 31-4 9-13 18-21 22-5 2-12 3-24 4-10 0-18 0-18 0z m465-92c-4-1-9-4-12-5l-4-3 8-1c4-1 11-1 15-1 8 1 18 6 18 9 0 3-14 4-25 1z m0-20c-4-6 1-14 8-14 7 0 11 12 5 16-5 2-11 2-13-2z m0-121c0-7 0-8 3-8 7 0 36 5 35 6-1 1-9 3-18 5-9 2-17 4-18 4-1 1-2-1-2-7z m-10-21c4-6 10-9 23-10 12-1 13 0 11 2-4 5-14 9-25 10-10 1-10 1-9-2z m16-88c0-1 2-5 4-8 2-4 4-7 4-8 0-1-4-5-9-8-4-4-8-7-7-7 1-1 7-2 14-2l12-1 5 14c2 7 4 15 5 16 1 2 1 2-21 5-5 1-7 0-7-1z" horiz-adv-x="1239" />

<glyph glyph-name="desktop" unicode="&#xe866;" d="M52 59c-24 5-42 26-42 51v667c0 29 24 52 53 52h1145c29 0 52-23 52-52v-667c0-28-23-52-52-52h-453c17-63 52-152 120-208h-490c75 56 109 145 124 208h-457v1z m11 718h1145v-573h-1145v573z m583-625h-42v-42h42v42z" horiz-adv-x="1271" />

<glyph glyph-name="tablet" unicode="&#xe867;" d="M104 725c-52 0-94-42-94-94v-687c0-52 42-94 94-94h479c52 0 94 42 94 94v687c0 52-42 94-94 94h-479z m479-62h-479c-17 0-31-14-31-32v-666h542v666c0 18-14 32-32 32z m-218-730h-52v-52h52v52z" horiz-adv-x="688" />

<glyph glyph-name="phone" unicode="&#xe868;" d="M10 485c0 35 28 63 63 63h229c35 0 63-28 63-63v-573c0-34-28-62-63-62h-229c-35 0-63 28-63 62v573z m250 32h42c17 0 31-14 31-32v-573c0-17-14-31-31-31h-229c-17 0-31 14-31 31v573c0 18 14 32 31 32h42v-11c0-11 9-21 20-21h105c11 0 20 10 20 21v11z" horiz-adv-x="375" />

<glyph glyph-name="all-device" unicode="&#xe869;" d="M5 768c0 42 35 77 78 77h1134c42 0 77-35 77-77h-52c0 14-11 25-25 25h-1134c-15 0-26-11-26-25v-567h892v-119-15-37h-174c19-59 53-132 112-180h-485c64 48 98 121 115 180h-434c-43 0-78 35-78 78v660z m990-149c0 63 51 113 113 113l436 0c63 0 114-50 114-113v-45l-42 0v45c0 40-32 72-72 72l-436 0c-40 0-72-32-72-72l0-645h397v-114-6h-325c-62 0-113 51-113 114l0 651z m302-664h49v-50h-49v50z m425 555h41c17 0 31-14 31-31v-567c0-17-14-31-31-31h-227c-17 0-31 14-31 31v567c0 17 14 31 31 31h41v-10c0-12 10-21 21-21h103c11 0 21 9 21 21v10z m-248-31c0 34 28 62 62 62h227c34 0 62-28 62-62v-567c0-34-28-62-62-62h-227c-34 0-62 28-62 62v567z" horiz-adv-x="1825" />

<glyph glyph-name="big-device" unicode="&#xe86a;" d="M0 768c0 42 35 77 77 77h1134c43 0 78-35 78-77h-52c0 14-11 25-26 25h-1134c-14 0-25-11-25-25v-567h891v-119-15-37h-173c19-59 53-132 111-180h-484c64 48 98 121 115 180h-435c-42 0-77 35-77 78v660z m1103-52c-51 0-93-42-93-93v-680c0-52 42-93 93-93h474c52 0 93 41 93 93v680c0 51-41 93-93 93h-474z m474-62h-474c-17 0-31-14-31-31v-660h536v660c0 17-14 31-31 31z m-216-722h-52v-51h52v51z" horiz-adv-x="1670" />

<glyph glyph-name="foo" unicode="&#xe86b;" d="M394 843c-67-8-127-28-198-64-122-64-154-107-184-248-6-30-11-74-12-104-1-47 2-58 20-108 73-199 161-304 298-359 29-12 72-28 94-38 22-9 64-20 92-24 28-4 73-16 100-25 61-20 118-22 165-2 19 7 48 16 64 18 16 2 50 15 75 27 26 12 65 28 87 34 54 15 87 43 108 90 14 32 16 42 16 96 0 45-3 68-11 90-15 44-14 72 8 130 10 27 20 61 22 74 5 34-6 71-25 84-21 14-32 37-32 66 0 13-5 32-11 42-6 9-11 28-11 43 0 35-13 50-59 69-20 7-39 18-41 22-3 5 0 5 7 2 23-11 86-32 98-32 11 0 12 1 6 11-17 25-75 46-156 55-22 2-80 13-127 24-136 32-275 42-393 27z m272-20c25-4 63-13 83-19 34-11 36-12 19-14-45-6-22-14 47-17 51-2 79-5 88-12 13-10 13-11-16-15-78-12-146-68-146-121 0-42 27-62 97-74 12-2 10-5-14-21-41-28-98-40-189-41-70-1-76-2-50-8 29-6 129-3 178 6l24 5-23-32c-13-18-23-39-23-46 0-7 6-30 14-51 21-58 19-99-11-179-13-37-25-79-28-96-1-16-5-30-7-30-2 0-28 14-57 31-56 32-101 47-140 45-16 0-8-4 35-16 95-28 133-51 196-120 33-37 65-54 114-62 41-6 21-20-34-23-41-2-48-4-59-19-12-17-14-18-70-15-57 3-90 11-302 76-113 34-170 71-228 147-62 81-130 234-138 309-5 50 9 136 31 192 26 66 54 99 116 137 29 19 61 36 70 39 8 3 26 10 39 18 13 7 44 17 70 23 57 11 251 13 314 3z m299-103c2-4-6-11-16-15-10-4-20-11-22-15-10-20 37-41 63-27 8 4 15 14 18 25 3 18 4 18 14 7 23-27 8-78-30-103-28-18-138-26-184-13-73 22-54 92 35 131 37 16 116 22 122 10z m89-137c0-26-3-27-25-17l-14 8 15 20c17 24 24 21 24-11z m-35-34c62-21 94-57 94-107 0-14-9-47-21-79-25-63-27-91-11-127 14-31 20-105 11-146-9-48-36-86-75-110-35-21-38-22-111-22-66 0-80 2-106 16-38 19-56 55-56 112 0 34 4 46 27 98 24 54 26 62 26 104 0 35-2 51-12 71-15 32-13 52 13 98 21 37 56 71 90 90 28 14 93 16 131 2z m-650 218c-66-8-121-25-132-41-6-8-17-14-28-14-14 0-93-43-93-51 0 0 19 0 44 2 38 4 50 8 82 30 49 32 100 52 155 61 24 3 46 9 50 14 6 8-9 7-78-1z m-12-48c-46-10-96-58-96-91 0-19-12-41-22-41-3 0-5-3-5-7 0-4 5-7 12-7 5 0 21-8 33-17 34-26 100-46 152-46 100 0 159 53 142 129-7 35-25 56-59 70-34 13-121 19-157 10z m151-31c69-36 57-122-20-147-73-24-185 2-205 47-16 37 16 88 68 107 36 14 126 9 157-7z m-163-64c-17-6-25-16-25-34 0-25 12-32 42-27 52 9 76 34 52 51-13 8-55 15-69 10z m550-121c-56-39-68-71-66-171 1-64-2-82-12-124-10-34-14-64-14-100 0-47 1-52 15-68 33-36 121-49 164-24 40 24 78 102 69 142-2 8-9 26-16 39-19 36-17 60 11 117 32 65 35 88 16 137-19 51-34 61-97 65-42 2-51 0-70-13z m117-14c12-9 13-38 2-31-5 2-30 5-57 8-51 5-63 15-34 30 17 8 74 3 89-7z m-62-36c4-5 7-16 7-24 0-15-2-16-20-12-27 6-27 7-12 27 14 20 16 21 25 9z m-52-19c0-19-2-21-17-21-19 0-21 15-4 31 17 15 21 14 21-10z m99-15c-4-9-29-7-29 2 0 4 2 14 6 22l6 15 10-16c6-9 8-19 7-23z m42 17c14-16 12-23-7-23-16 0-18 4-13 24 5 14 7 14 20-1z m7-38c2-4-3-21-10-39-8-18-21-50-29-70l-15-37 10-32c15-51 22-84 19-89-3-2-12 4-22 14-32 30-67 47-113 51-41 4-43 4-40 18 8 35 14 95 14 142v50h91c59 0 93-3 95-8z m-111-225c25-11 54-36 54-46 0-3-34-6-81-6h-81v19c0 11 4 27 9 36 9 15 11 16 43 12 19-3 44-9 56-15z m-70-83c0-24-6-26-26-10-21 16-18 27 8 27 16 0 18-2 18-17z m49 0c0-14-3-18-14-18-7 0-13 3-13 7 0 3-2 11-3 17-3 9 0 11 13 11 14 0 17-3 17-17z m43-7c0-28-12-34-22-10-8 19-3 34 11 34 9 0 11-4 11-24z m59 19c0-3-5-13-11-22-9-14-13-16-20-10-5 4-10 14-11 23-1 12 1 14 20 14 13 0 22-2 22-5z m-76-51c51-11 44-22-18-26-36-3-49-1-59 8-17 14-18 23-2 28 13 3 20 2 79-10z" horiz-adv-x="1139" />

<glyph glyph-name="arr-left" unicode="&#xe86c;" d="M32 397c-25-26-25-68 0-93l419-419c26-26 68-26 93 0 26 25 26 67 0 93l-372 372 372 372c26 26 26 68 0 93-25 26-67 26-93 0l-419-418z m968 19l-921 0v-132l921 0v132z" horiz-adv-x="1000" />

<glyph glyph-name="slack" unicode="&#xe86d;" d="M700 659l-27 151-95-17 27-151-303-54-27 152-95-17 27-151-170-30 16-95 171 30 57-322-171-30 17-95 170 30 30-170 95 17-30 170 303 54 30-171 95 17-30 170 170 30-17 95-170-30-57 322 171 30-17 95-170-30z m-78-112l-304-53 57-322 303 53-56 322z" horiz-adv-x="1000" />

<glyph glyph-name="semaphor" unicode="&#xe86e;" d="M810 850h-551v-1000h551v1000z m-94-213c-32 65-99 110-177 110-77 0-144-45-177-110 17 82 90 144 177 144 87 0 160-62 177-144z m-44-80c0-76-61-138-137-138-77 0-138 62-138 138 0 76 61 138 138 138 76 0 137-62 137-138z m-133-259c78 0 145-44 177-109-17 82-90 144-177 144-87 0-160-62-177-144 33 65 100 109 177 109z m133-189c0-77-61-138-137-138-77 0-138 61-138 138 0 76 61 138 138 138 76 0 137-62 137-138z m173 638h224l-224-225v225z m224-414h-224v-224l224 224z m-845 414h-224l224-225v225z m-224-414h224v-224l-224 224z" horiz-adv-x="1069" />

<glyph glyph-name="read" unicode="&#xe86f;" d="M158 843h651v-237l178-95v-661h-987v660l158 92v241z m0-302l-84-49 84-63v112z m53-151l282-211 264 196v416h-546v-401z m598 25l103 76-103 55v-131z m125 27l-283-211 283-290v501z m-36-539l-289 296-116-86-115 86-289-296h809z m-845 38v501l282-211-282-290z m592 699h-303v52h303v-52z m0-106h-303v53h303v-53z m0-105h-303v53h303v-53z" horiz-adv-x="987" />

<glyph glyph-name="adjust" unicode="&#xe870;" d="M273 486c0 51-41 91-91 91-50 0-91-40-91-91 0-42 29-78 68-88 7-1 15-2 23-2 8 0 15 1 23 2 39 10 68 46 68 88z m91 0c0 85-58 156-137 177l0 187-91 0 0-187c-78-21-136-92-136-177 0-84 58-155 136-176l0-5 0-455 91 0 0 455 0 5c79 21 137 92 137 176z m363-272c0 50-40 91-91 91-50 0-90-41-90-91 0-51 40-91 90-91 51 0 91 40 91 91z m91 0c0 84-58 156-136 176l0 460-91 0 0-460c-78-20-136-92-136-176 0-85 58-156 136-176l0-188 91 0 0 188c78 20 136 91 136 176z" horiz-adv-x="818" />

<glyph glyph-name="control" unicode="&#xe871;" d="M419 253c98 0 178 80 178 178 0 98-80 177-178 177-14 0-29-2-42-5 34-12 59-45 59-84 0-49-40-88-89-88-45 0-82 33-88 76-11-23-17-49-17-76 0-98 79-178 177-178z m356-44c41 64 64 140 64 222 0 231-188 419-420 419-231 0-419-188-419-419 0-232 188-420 419-420 103 0 197 37 270 98l203-222c32-36 87-37 121-3 34 34 32 91-4 123l-234 202z m-356-117c187 0 339 152 339 339 0 187-152 338-339 338-187 0-338-151-338-338 0-187 151-339 338-339z" horiz-adv-x="1048" />

<glyph glyph-name="spread" unicode="&#xf527;" d="M0 493q0 57 41 98t98 41q58 0 99-41t40-98q0-40-21-73l282-281q19 12 39 17v388q-46 12-76 49t-30 87q0 57 41 98t99 40q57 0 98-40t40-98q0-49-30-87t-76-49v-388q20-5 39-17l282 281q-21 34-21 73 0 58 41 98t98 41 98-41 41-98-41-99-98-41q-37 0-72 22l-282-282q21-33 21-72 0-58-40-99t-98-41q-59 0-99 41t-41 99q0 39 21 72l-282 282q-35-22-72-22-57 0-98 41t-41 99z" horiz-adv-x="1222.7" />
</font>
</defs>
</svg>
